<svg width="216" height="245" viewBox="0 0 216 245" fill="none" xmlns="http://www.w3.org/2000/svg">
<rect width="216" height="245" fill="#1E1E1E"/>
<rect width="216.433" height="244.967" fill="#344294"/>
<path d="M54.8052 99H50.8677L58.0368 78.6364H62.5907L69.7697 99H65.8322L60.3933 82.8125H60.2342L54.8052 99ZM54.9345 91.0156H65.6731V93.9787H54.9345V91.0156ZM84.1177 87.7642L80.8365 88.1222C80.7437 87.7907 80.5813 87.4792 80.3493 87.1875C80.1239 86.8958 79.819 86.6605 79.4345 86.4815C79.05 86.3026 78.5794 86.2131 78.0225 86.2131C77.2735 86.2131 76.6438 86.3755 76.1333 86.7003C75.6296 87.0251 75.381 87.446 75.3876 87.9631C75.381 88.4072 75.5434 88.7685 75.8748 89.0469C76.2129 89.3253 76.7697 89.554 77.5453 89.733L80.1504 90.2898C81.5955 90.6013 82.6693 91.0952 83.372 91.7713C84.0813 92.4474 84.4392 93.3324 84.4458 94.4261C84.4392 95.3873 84.1575 96.2358 83.6007 96.9716C83.0505 97.7008 82.2849 98.2708 81.3038 98.6818C80.3227 99.0928 79.1958 99.2983 77.9231 99.2983C76.0538 99.2983 74.5491 98.9072 73.4089 98.125C72.2688 97.3362 71.5893 96.2391 71.3706 94.8338L74.8805 94.4957C75.0396 95.1851 75.3777 95.7055 75.8947 96.0568C76.4118 96.4081 77.0846 96.5838 77.9132 96.5838C78.7683 96.5838 79.4544 96.4081 79.9714 96.0568C80.4951 95.7055 80.7569 95.2713 80.7569 94.7543C80.7569 94.3168 80.5879 93.9555 80.2498 93.6705C79.9184 93.3854 79.4013 93.1667 78.6987 93.0142L76.0936 92.4673C74.6286 92.1624 73.5448 91.6487 72.8422 90.9261C72.1395 90.197 71.7915 89.2756 71.7981 88.1619C71.7915 87.2206 72.0467 86.4053 72.5637 85.7159C73.0874 85.0199 73.8133 84.483 74.7413 84.1051C75.676 83.7206 76.7531 83.5284 77.9728 83.5284C79.7626 83.5284 81.1712 83.9096 82.1987 84.6719C83.2328 85.4342 83.8725 86.465 84.1177 87.7642ZM99.4849 87.7642L96.2037 88.1222C96.1109 87.7907 95.9484 87.4792 95.7164 87.1875C95.4911 86.8958 95.1861 86.6605 94.8017 86.4815C94.4172 86.3026 93.9466 86.2131 93.3897 86.2131C92.6407 86.2131 92.0109 86.3755 91.5005 86.7003C90.9967 87.0251 90.7482 87.446 90.7548 87.9631C90.7482 88.4072 90.9106 88.7685 91.242 89.0469C91.5801 89.3253 92.1369 89.554 92.9125 89.733L95.5176 90.2898C96.9627 90.6013 98.0365 91.0952 98.7392 91.7713C99.4484 92.4474 99.8064 93.3324 99.813 94.4261C99.8064 95.3873 99.5247 96.2358 98.9679 96.9716C98.4177 97.7008 97.652 98.2708 96.671 98.6818C95.6899 99.0928 94.563 99.2983 93.2903 99.2983C91.421 99.2983 89.9163 98.9072 88.7761 98.125C87.6359 97.3362 86.9565 96.2391 86.7377 94.8338L90.2477 94.4957C90.4068 95.1851 90.7449 95.7055 91.2619 96.0568C91.7789 96.4081 92.4518 96.5838 93.2804 96.5838C94.1355 96.5838 94.8216 96.4081 95.3386 96.0568C95.8623 95.7055 96.1241 95.2713 96.1241 94.7543C96.1241 94.3168 95.9551 93.9555 95.617 93.6705C95.2856 93.3854 94.7685 93.1667 94.0659 93.0142L91.4608 92.4673C89.9958 92.1624 88.912 91.6487 88.2093 90.9261C87.5067 90.197 87.1587 89.2756 87.1653 88.1619C87.1587 87.2206 87.4139 86.4053 87.9309 85.7159C88.4546 85.0199 89.1805 84.483 90.1085 84.1051C91.0431 83.7206 92.1203 83.5284 93.34 83.5284C95.1298 83.5284 96.5384 83.9096 97.5659 84.6719C98.6 85.4342 99.2396 86.465 99.4849 87.7642ZM102.781 99V83.7273H106.381V99H102.781ZM104.591 81.5597C104.021 81.5597 103.53 81.3707 103.119 80.9929C102.708 80.6084 102.503 80.1477 102.503 79.6108C102.503 79.0672 102.708 78.6065 103.119 78.2287C103.53 77.8442 104.021 77.652 104.591 77.652C105.167 77.652 105.658 77.8442 106.062 78.2287C106.473 78.6065 106.679 79.0672 106.679 79.6108C106.679 80.1477 106.473 80.6084 106.062 80.9929C105.658 81.3707 105.167 81.5597 104.591 81.5597ZM116.724 105.045C115.431 105.045 114.321 104.87 113.393 104.518C112.465 104.174 111.719 103.71 111.156 103.126C110.592 102.543 110.201 101.897 109.982 101.188L113.224 100.402C113.37 100.7 113.582 100.995 113.86 101.287C114.139 101.585 114.513 101.83 114.984 102.023C115.461 102.222 116.061 102.321 116.784 102.321C117.804 102.321 118.65 102.072 119.319 101.575C119.989 101.085 120.323 100.276 120.323 99.1491V96.2557H120.144C119.959 96.6269 119.687 97.008 119.329 97.3991C118.978 97.7902 118.51 98.1184 117.927 98.3835C117.35 98.6487 116.624 98.7812 115.749 98.7812C114.576 98.7812 113.512 98.5062 112.558 97.956C111.61 97.3991 110.854 96.5705 110.291 95.4702C109.734 94.3632 109.455 92.9777 109.455 91.3139C109.455 89.6368 109.734 88.2216 110.291 87.0682C110.854 85.9081 111.613 85.0298 112.568 84.4332C113.522 83.83 114.586 83.5284 115.759 83.5284C116.654 83.5284 117.39 83.6809 117.967 83.9858C118.55 84.2841 119.014 84.6454 119.359 85.0696C119.704 85.4872 119.965 85.8816 120.144 86.2528H120.343V83.7273H123.893V99.2486C123.893 100.554 123.581 101.635 122.958 102.49C122.335 103.345 121.483 103.985 120.403 104.409C119.322 104.833 118.096 105.045 116.724 105.045ZM116.754 95.9574C117.516 95.9574 118.166 95.7718 118.703 95.4006C119.24 95.0294 119.647 94.4957 119.926 93.7997C120.204 93.1037 120.343 92.2685 120.343 91.294C120.343 90.3329 120.204 89.491 119.926 88.7685C119.654 88.0459 119.249 87.4858 118.713 87.0881C118.182 86.6837 117.529 86.4815 116.754 86.4815C115.952 86.4815 115.282 86.6903 114.745 87.108C114.208 87.5256 113.804 88.099 113.532 88.8281C113.26 89.5507 113.124 90.3726 113.124 91.294C113.124 92.2287 113.26 93.0473 113.532 93.75C113.811 94.446 114.218 94.9896 114.755 95.3807C115.299 95.7652 115.965 95.9574 116.754 95.9574ZM131.181 90.0511V99H127.582V83.7273H131.022V86.3224H131.201C131.552 85.4673 132.113 84.7879 132.882 84.2841C133.657 83.7803 134.615 83.5284 135.755 83.5284C136.809 83.5284 137.727 83.7538 138.509 84.2045C139.298 84.6553 139.908 85.3082 140.339 86.1634C140.776 87.0185 140.992 88.0559 140.985 89.2756V99H137.386V89.8324C137.386 88.8116 137.121 88.0128 136.59 87.4361C136.067 86.8594 135.341 86.571 134.413 86.571C133.783 86.571 133.223 86.7102 132.732 86.9886C132.249 87.2604 131.867 87.6548 131.589 88.1719C131.317 88.6889 131.181 89.3153 131.181 90.0511ZM155.985 99.3082C155.017 99.3082 154.145 99.1359 153.369 98.7912C152.601 98.4399 151.991 97.9228 151.54 97.2401C151.096 96.5573 150.874 95.7154 150.874 94.7145C150.874 93.8527 151.033 93.1402 151.351 92.5767C151.669 92.0133 152.103 91.5625 152.654 91.2244C153.204 90.8864 153.824 90.6312 154.513 90.4588C155.209 90.2798 155.928 90.1506 156.671 90.071C157.566 89.9782 158.291 89.8954 158.848 89.8224C159.405 89.7429 159.809 89.6236 160.061 89.4645C160.32 89.2988 160.449 89.0436 160.449 88.6989V88.6392C160.449 87.8902 160.227 87.3101 159.783 86.8991C159.339 86.4882 158.699 86.2827 157.864 86.2827C156.982 86.2827 156.283 86.4749 155.766 86.8594C155.255 87.2438 154.911 87.6979 154.732 88.2216L151.371 87.7443C151.636 86.8163 152.074 86.0407 152.683 85.4176C153.293 84.7879 154.039 84.3172 154.921 84.0057C155.802 83.6875 156.777 83.5284 157.844 83.5284C158.58 83.5284 159.312 83.6146 160.041 83.7869C160.771 83.9593 161.437 84.2443 162.04 84.642C162.643 85.0331 163.127 85.5668 163.492 86.2429C163.863 86.919 164.048 87.7642 164.048 88.7784V99H160.588V96.902H160.469C160.25 97.3262 159.942 97.724 159.544 98.0952C159.153 98.4598 158.659 98.7547 158.063 98.9801C157.473 99.1989 156.78 99.3082 155.985 99.3082ZM156.919 96.6634C157.642 96.6634 158.268 96.5208 158.798 96.2358C159.329 95.9441 159.736 95.5597 160.021 95.0824C160.313 94.6051 160.459 94.0848 160.459 93.5213V91.7216C160.346 91.8144 160.154 91.9006 159.882 91.9801C159.617 92.0597 159.319 92.1293 158.987 92.1889C158.656 92.2486 158.328 92.3016 158.003 92.348C157.678 92.3944 157.396 92.4342 157.158 92.4673C156.621 92.5402 156.14 92.6596 155.716 92.8253C155.292 92.991 154.957 93.223 154.712 93.5213C154.467 93.813 154.344 94.1908 154.344 94.6548C154.344 95.3177 154.586 95.8182 155.07 96.1562C155.554 96.4943 156.17 96.6634 156.919 96.6634ZM28.1227 133.298C26.5981 133.298 25.2889 132.964 24.1951 132.294C23.108 131.625 22.2695 130.7 21.6795 129.52C21.0962 128.333 20.8045 126.968 20.8045 125.423C20.8045 123.872 21.1028 122.503 21.6994 121.317C22.296 120.124 23.1378 119.196 24.225 118.533C25.3187 117.863 26.6113 117.528 28.1028 117.528C29.3424 117.528 30.4395 117.757 31.394 118.214C32.3552 118.665 33.1208 119.305 33.6909 120.134C34.2609 120.955 34.5858 121.917 34.6653 123.017H31.225C31.0858 122.281 30.7543 121.668 30.2306 121.178C29.7136 120.68 29.0209 120.432 28.1525 120.432C27.4167 120.432 26.7704 120.631 26.2136 121.028C25.6568 121.42 25.2226 121.983 24.911 122.719C24.6061 123.455 24.4537 124.336 24.4537 125.364C24.4537 126.404 24.6061 127.299 24.911 128.048C25.216 128.791 25.6435 129.364 26.1937 129.768C26.7505 130.166 27.4035 130.365 28.1525 130.365C28.6828 130.365 29.1568 130.266 29.5744 130.067C29.9986 129.861 30.3533 129.566 30.6383 129.182C30.9234 128.797 31.1189 128.33 31.225 127.78H34.6653C34.5791 128.86 34.2609 129.818 33.7108 130.653C33.1606 131.482 32.4115 132.132 31.4636 132.602C30.5157 133.066 29.402 133.298 28.1227 133.298ZM47.3553 126.577V117.727H50.9547V133H47.4647V130.286H47.3056C46.9609 131.141 46.3941 131.84 45.6053 132.384C44.8231 132.927 43.8586 133.199 42.7118 133.199C41.7109 133.199 40.8259 132.977 40.057 132.533C39.2947 132.082 38.6981 131.429 38.2672 130.574C37.8364 129.712 37.6209 128.671 37.6209 127.452V117.727H41.2203V126.895C41.2203 127.863 41.4855 128.632 42.0158 129.202C42.5461 129.772 43.2421 130.057 44.1039 130.057C44.6342 130.057 45.1479 129.928 45.6451 129.669C46.1422 129.411 46.5499 129.026 46.8681 128.516C47.1929 127.999 47.3553 127.352 47.3553 126.577ZM66.7271 121.764L63.4458 122.122C63.353 121.791 63.1906 121.479 62.9586 121.188C62.7333 120.896 62.4283 120.661 62.0439 120.482C61.6594 120.303 61.1887 120.213 60.6319 120.213C59.8829 120.213 59.2531 120.375 58.7427 120.7C58.2389 121.025 57.9904 121.446 57.997 121.963C57.9904 122.407 58.1528 122.768 58.4842 123.047C58.8223 123.325 59.3791 123.554 60.1547 123.733L62.7598 124.29C64.2048 124.601 65.2787 125.095 65.9814 125.771C66.6906 126.447 67.0486 127.332 67.0552 128.426C67.0486 129.387 66.7669 130.236 66.21 130.972C65.6599 131.701 64.8942 132.271 63.9132 132.682C62.9321 133.093 61.8052 133.298 60.5325 133.298C58.6632 133.298 57.1584 132.907 56.0183 132.125C54.8781 131.336 54.1987 130.239 53.9799 128.834L57.4899 128.496C57.649 129.185 57.987 129.705 58.5041 130.057C59.0211 130.408 59.694 130.584 60.5225 130.584C61.3777 130.584 62.0637 130.408 62.5808 130.057C63.1045 129.705 63.3663 129.271 63.3663 128.754C63.3663 128.317 63.1973 127.955 62.8592 127.67C62.5278 127.385 62.0107 127.167 61.3081 127.014L58.7029 126.467C57.238 126.162 56.1542 125.649 55.4515 124.926C54.7489 124.197 54.4009 123.276 54.4075 122.162C54.4009 121.221 54.6561 120.405 55.1731 119.716C55.6968 119.02 56.4226 118.483 57.3507 118.105C58.2853 117.721 59.3625 117.528 60.5822 117.528C62.372 117.528 63.7806 117.91 64.8081 118.672C65.8422 119.434 66.4818 120.465 66.7271 121.764ZM77.6497 117.727V120.511H68.8699V117.727H77.6497ZM71.0375 114.068H74.6369V128.406C74.6369 128.89 74.7098 129.261 74.8556 129.52C75.0081 129.772 75.207 129.944 75.4522 130.037C75.6975 130.13 75.9693 130.176 76.2676 130.176C76.493 130.176 76.6984 130.16 76.8841 130.126C77.0763 130.093 77.2221 130.063 77.3216 130.037L77.9281 132.851C77.7359 132.917 77.4608 132.99 77.1028 133.07C76.7515 133.149 76.3206 133.196 75.8102 133.209C74.9087 133.235 74.0967 133.099 73.3741 132.801C72.6516 132.496 72.0782 132.026 71.6539 131.389C71.2363 130.753 71.0308 129.957 71.0375 129.003V114.068ZM87.1578 133.298C85.6664 133.298 84.3738 132.97 83.28 132.314C82.1863 131.658 81.3378 130.74 80.7346 129.56C80.138 128.38 79.8397 127.001 79.8397 125.423C79.8397 123.846 80.138 122.464 80.7346 121.277C81.3378 120.09 82.1863 119.169 83.28 118.513C84.3738 117.857 85.6664 117.528 87.1578 117.528C88.6493 117.528 89.9419 117.857 91.0357 118.513C92.1294 119.169 92.9746 120.09 93.5712 121.277C94.1744 122.464 94.476 123.846 94.476 125.423C94.476 127.001 94.1744 128.38 93.5712 129.56C92.9746 130.74 92.1294 131.658 91.0357 132.314C89.9419 132.97 88.6493 133.298 87.1578 133.298ZM87.1777 130.415C87.9864 130.415 88.6626 130.193 89.2061 129.749C89.7497 129.298 90.1541 128.695 90.4192 127.939C90.691 127.183 90.8269 126.341 90.8269 125.413C90.8269 124.479 90.691 123.634 90.4192 122.878C90.1541 122.116 89.7497 121.509 89.2061 121.058C88.6626 120.607 87.9864 120.382 87.1777 120.382C86.3491 120.382 85.6597 120.607 85.1096 121.058C84.566 121.509 84.1583 122.116 83.8865 122.878C83.6214 123.634 83.4888 124.479 83.4888 125.413C83.4888 126.341 83.6214 127.183 83.8865 127.939C84.1583 128.695 84.566 129.298 85.1096 129.749C85.6597 130.193 86.3491 130.415 87.1777 130.415ZM97.5311 133V117.727H100.971V120.322H101.15C101.469 119.447 101.996 118.765 102.731 118.274C103.467 117.777 104.345 117.528 105.366 117.528C106.4 117.528 107.272 117.78 107.981 118.284C108.697 118.781 109.201 119.461 109.493 120.322H109.652C109.99 119.474 110.56 118.798 111.362 118.294C112.171 117.784 113.129 117.528 114.236 117.528C115.641 117.528 116.788 117.973 117.676 118.861C118.564 119.749 119.008 121.045 119.008 122.749V133H115.399V123.305C115.399 122.357 115.147 121.665 114.643 121.227C114.14 120.783 113.523 120.561 112.794 120.561C111.925 120.561 111.246 120.833 110.756 121.376C110.272 121.913 110.03 122.613 110.03 123.474V133H106.5V123.156C106.5 122.367 106.261 121.738 105.784 121.267C105.313 120.796 104.697 120.561 103.934 120.561C103.417 120.561 102.947 120.694 102.523 120.959C102.098 121.217 101.76 121.585 101.508 122.062C101.256 122.533 101.131 123.083 101.131 123.713V133H97.5311ZM33.1887 151.727V154.511H24.4089V151.727H33.1887ZM26.5765 148.068H30.176V162.406C30.176 162.89 30.2489 163.261 30.3947 163.52C30.5472 163.772 30.746 163.944 30.9913 164.037C31.2366 164.13 31.5083 164.176 31.8066 164.176C32.032 164.176 32.2375 164.16 32.4231 164.126C32.6154 164.093 32.7612 164.063 32.8606 164.037L33.4672 166.851C33.2749 166.917 32.9998 166.99 32.6419 167.07C32.2905 167.149 31.8597 167.196 31.3493 167.209C30.4477 167.235 29.6357 167.099 28.9132 166.801C28.1906 166.496 27.6172 166.026 27.193 165.389C26.7754 164.753 26.5699 163.957 26.5765 163.003V148.068ZM42.6969 167.298C41.2054 167.298 39.9128 166.97 38.8191 166.314C37.7253 165.658 36.8768 164.74 36.2736 163.56C35.677 162.38 35.3787 161.001 35.3787 159.423C35.3787 157.846 35.677 156.464 36.2736 155.277C36.8768 154.09 37.7253 153.169 38.8191 152.513C39.9128 151.857 41.2054 151.528 42.6969 151.528C44.1884 151.528 45.481 151.857 46.5748 152.513C47.6685 153.169 48.5137 154.09 49.1103 155.277C49.7135 156.464 50.0151 157.846 50.0151 159.423C50.0151 161.001 49.7135 162.38 49.1103 163.56C48.5137 164.74 47.6685 165.658 46.5748 166.314C45.481 166.97 44.1884 167.298 42.6969 167.298ZM42.7168 164.415C43.5255 164.415 44.2016 164.193 44.7452 163.749C45.2888 163.298 45.6931 162.695 45.9583 161.939C46.2301 161.183 46.3659 160.341 46.3659 159.413C46.3659 158.479 46.2301 157.634 45.9583 156.878C45.6931 156.116 45.2888 155.509 44.7452 155.058C44.2016 154.607 43.5255 154.382 42.7168 154.382C41.8882 154.382 41.1988 154.607 40.6486 155.058C40.1051 155.509 39.6974 156.116 39.4256 156.878C39.1605 157.634 39.0279 158.479 39.0279 159.413C39.0279 160.341 39.1605 161.183 39.4256 161.939C39.6974 162.695 40.1051 163.298 40.6486 163.749C41.1988 164.193 41.8882 164.415 42.7168 164.415ZM66.7768 167.298C65.2456 167.298 63.9231 166.98 62.8095 166.344C61.7025 165.701 60.8507 164.793 60.2541 163.619C59.6575 162.439 59.3592 161.051 59.3592 159.453C59.3592 157.882 59.6575 156.503 60.2541 155.317C60.8573 154.124 61.6992 153.196 62.7797 152.533C63.8601 151.863 65.1296 151.528 66.5879 151.528C67.5292 151.528 68.4174 151.681 69.2527 151.986C70.0945 152.284 70.8369 152.748 71.4799 153.378C72.1296 154.008 72.64 154.81 73.0112 155.784C73.3824 156.752 73.568 157.905 73.568 159.244V160.348H61.0495V157.922H70.1177C70.1111 157.232 69.9619 156.619 69.6703 156.082C69.3786 155.539 68.9709 155.111 68.4473 154.8C67.9302 154.488 67.327 154.332 66.6376 154.332C65.9018 154.332 65.2555 154.511 64.6987 154.869C64.1419 155.221 63.7077 155.685 63.3961 156.261C63.0912 156.831 62.9354 157.458 62.9288 158.141V160.259C62.9288 161.147 63.0912 161.909 63.416 162.545C63.7408 163.175 64.1949 163.659 64.7782 163.997C65.3616 164.329 66.0443 164.494 66.8265 164.494C67.3502 164.494 67.8242 164.421 68.2484 164.276C68.6726 164.123 69.0405 163.901 69.3521 163.609C69.6636 163.318 69.899 162.956 70.0581 162.526L73.4189 162.903C73.2067 163.792 72.8024 164.567 72.2058 165.23C71.6158 165.886 70.8601 166.397 69.9387 166.761C69.0173 167.119 67.9634 167.298 66.7768 167.298ZM81.008 167.308C80.0402 167.308 79.1685 167.136 78.3929 166.791C77.624 166.44 77.0141 165.923 76.5634 165.24C76.1193 164.557 75.8972 163.715 75.8972 162.714C75.8972 161.853 76.0563 161.14 76.3745 160.577C76.6926 160.013 77.1268 159.562 77.677 159.224C78.2272 158.886 78.847 158.631 79.5364 158.459C80.2324 158.28 80.9516 158.151 81.6941 158.071C82.589 157.978 83.3148 157.895 83.8716 157.822C84.4284 157.743 84.8328 157.624 85.0847 157.464C85.3432 157.299 85.4725 157.044 85.4725 156.699V156.639C85.4725 155.89 85.2504 155.31 84.8063 154.899C84.3622 154.488 83.7225 154.283 82.8873 154.283C82.0056 154.283 81.3063 154.475 80.7892 154.859C80.2788 155.244 79.9341 155.698 79.7551 156.222L76.3944 155.744C76.6595 154.816 77.097 154.041 77.7069 153.418C78.3167 152.788 79.0624 152.317 79.9441 152.006C80.8257 151.688 81.8001 151.528 82.8674 151.528C83.6032 151.528 84.3356 151.615 85.0648 151.787C85.794 151.959 86.4602 152.244 87.0634 152.642C87.6666 153.033 88.1505 153.567 88.5151 154.243C88.8863 154.919 89.0719 155.764 89.0719 156.778V167H85.6117V164.902H85.4924C85.2736 165.326 84.9654 165.724 84.5676 166.095C84.1766 166.46 83.6827 166.755 83.0861 166.98C82.4962 167.199 81.8034 167.308 81.008 167.308ZM81.9426 164.663C82.6652 164.663 83.2916 164.521 83.8219 164.236C84.3522 163.944 84.7599 163.56 85.0449 163.082C85.3366 162.605 85.4824 162.085 85.4824 161.521V159.722C85.3697 159.814 85.1775 159.901 84.9057 159.98C84.6406 160.06 84.3423 160.129 84.0108 160.189C83.6794 160.249 83.3513 160.302 83.0265 160.348C82.7016 160.394 82.4199 160.434 82.1813 160.467C81.6444 160.54 81.1638 160.66 80.7395 160.825C80.3153 160.991 79.9805 161.223 79.7353 161.521C79.49 161.813 79.3674 162.191 79.3674 162.655C79.3674 163.318 79.6093 163.818 80.0932 164.156C80.5771 164.494 81.1936 164.663 81.9426 164.663ZM99.3532 167.298C97.8285 167.298 96.5194 166.964 95.4256 166.294C94.3385 165.625 93.4999 164.7 92.91 163.52C92.3266 162.333 92.035 160.968 92.035 159.423C92.035 157.872 92.3333 156.503 92.9299 155.317C93.5265 154.124 94.3683 153.196 95.4554 152.533C96.5492 151.863 97.8418 151.528 99.3333 151.528C100.573 151.528 101.67 151.757 102.624 152.214C103.586 152.665 104.351 153.305 104.921 154.134C105.491 154.955 105.816 155.917 105.896 157.017H102.455C102.316 156.281 101.985 155.668 101.461 155.178C100.944 154.68 100.251 154.432 99.383 154.432C98.6472 154.432 98.0009 154.631 97.4441 155.028C96.8873 155.42 96.4531 155.983 96.1415 156.719C95.8366 157.455 95.6841 158.336 95.6841 159.364C95.6841 160.404 95.8366 161.299 96.1415 162.048C96.4464 162.791 96.874 163.364 97.4242 163.768C97.981 164.166 98.6339 164.365 99.383 164.365C99.9133 164.365 100.387 164.266 100.805 164.067C101.229 163.861 101.584 163.566 101.869 163.182C102.154 162.797 102.349 162.33 102.455 161.78H105.896C105.81 162.86 105.491 163.818 104.941 164.653C104.391 165.482 103.642 166.132 102.694 166.602C101.746 167.066 100.633 167.298 99.3532 167.298ZM112.451 158.051V167H108.851V146.636H112.371V154.322H112.55C112.908 153.461 113.462 152.781 114.211 152.284C114.966 151.78 115.928 151.528 117.094 151.528C118.155 151.528 119.08 151.75 119.868 152.195C120.657 152.639 121.267 153.288 121.698 154.143C122.135 154.999 122.354 156.043 122.354 157.276V167H118.755V157.832C118.755 156.805 118.49 156.006 117.959 155.436C117.436 154.859 116.7 154.571 115.752 154.571C115.116 154.571 114.546 154.71 114.042 154.989C113.545 155.26 113.153 155.655 112.868 156.172C112.59 156.689 112.451 157.315 112.451 158.051ZM136.568 158.051V167H132.969V151.727H136.409V154.322H136.588C136.939 153.467 137.499 152.788 138.268 152.284C139.044 151.78 140.002 151.528 141.142 151.528C142.196 151.528 143.114 151.754 143.896 152.205C144.685 152.655 145.295 153.308 145.726 154.163C146.163 155.018 146.379 156.056 146.372 157.276V167H142.773V157.832C142.773 156.812 142.507 156.013 141.977 155.436C141.453 154.859 140.728 154.571 139.8 154.571C139.17 154.571 138.61 154.71 138.119 154.989C137.635 155.26 137.254 155.655 136.976 156.172C136.704 156.689 136.568 157.315 136.568 158.051ZM156.693 167.298C155.202 167.298 153.909 166.97 152.815 166.314C151.721 165.658 150.873 164.74 150.27 163.56C149.673 162.38 149.375 161.001 149.375 159.423C149.375 157.846 149.673 156.464 150.27 155.277C150.873 154.09 151.721 153.169 152.815 152.513C153.909 151.857 155.202 151.528 156.693 151.528C158.184 151.528 159.477 151.857 160.571 152.513C161.665 153.169 162.51 154.09 163.106 155.277C163.71 156.464 164.011 157.846 164.011 159.423C164.011 161.001 163.71 162.38 163.106 163.56C162.51 164.74 161.665 165.658 160.571 166.314C159.477 166.97 158.184 167.298 156.693 167.298ZM156.713 164.415C157.522 164.415 158.198 164.193 158.741 163.749C159.285 163.298 159.689 162.695 159.954 161.939C160.226 161.183 160.362 160.341 160.362 159.413C160.362 158.479 160.226 157.634 159.954 156.878C159.689 156.116 159.285 155.509 158.741 155.058C158.198 154.607 157.522 154.382 156.713 154.382C155.884 154.382 155.195 154.607 154.645 155.058C154.101 155.509 153.693 156.116 153.422 156.878C153.157 157.634 153.024 158.479 153.024 159.413C153.024 160.341 153.157 161.183 153.422 161.939C153.693 162.695 154.101 163.298 154.645 163.749C155.195 164.193 155.884 164.415 156.713 164.415ZM174.693 151.727V154.511H165.913V151.727H174.693ZM168.08 148.068H171.68V162.406C171.68 162.89 171.753 163.261 171.899 163.52C172.051 163.772 172.25 163.944 172.495 164.037C172.74 164.13 173.012 164.176 173.311 164.176C173.536 164.176 173.741 164.16 173.927 164.126C174.119 164.093 174.265 164.063 174.365 164.037L174.971 166.851C174.779 166.917 174.504 166.99 174.146 167.07C173.794 167.149 173.364 167.196 172.853 167.209C171.952 167.235 171.14 167.099 170.417 166.801C169.695 166.496 169.121 166.026 168.697 165.389C168.279 164.753 168.074 163.957 168.08 163.003V148.068ZM184.3 167.298C182.769 167.298 181.447 166.98 180.333 166.344C179.226 165.701 178.374 164.793 177.778 163.619C177.181 162.439 176.883 161.051 176.883 159.453C176.883 157.882 177.181 156.503 177.778 155.317C178.381 154.124 179.223 153.196 180.303 152.533C181.384 151.863 182.653 151.528 184.111 151.528C185.053 151.528 185.941 151.681 186.776 151.986C187.618 152.284 188.36 152.748 189.003 153.378C189.653 154.008 190.163 154.81 190.535 155.784C190.906 156.752 191.091 157.905 191.091 159.244V160.348H178.573V157.922H187.641C187.635 157.232 187.485 156.619 187.194 156.082C186.902 155.539 186.494 155.111 185.971 154.8C185.454 154.488 184.85 154.332 184.161 154.332C183.425 154.332 182.779 154.511 182.222 154.869C181.665 155.221 181.231 155.685 180.92 156.261C180.615 156.831 180.459 157.458 180.452 158.141V160.259C180.452 161.147 180.615 161.909 180.939 162.545C181.264 163.175 181.718 163.659 182.302 163.997C182.885 164.329 183.568 164.494 184.35 164.494C184.874 164.494 185.348 164.421 185.772 164.276C186.196 164.123 186.564 163.901 186.876 163.609C187.187 163.318 187.422 162.956 187.581 162.526L190.942 162.903C190.73 163.792 190.326 164.567 189.729 165.23C189.139 165.886 188.384 166.397 187.462 166.761C186.541 167.119 185.487 167.298 184.3 167.298Z" fill="white"/>
<path d="M136.267 133.298C134.743 133.298 133.433 132.964 132.34 132.294C131.253 131.625 130.414 130.7 129.824 129.52C129.241 128.333 128.949 126.968 128.949 125.423C128.949 123.872 129.247 122.503 129.844 121.317C130.441 120.124 131.282 119.196 132.369 118.533C133.463 117.863 134.756 117.528 136.247 117.528C137.487 117.528 138.584 117.757 139.539 118.214C140.5 118.665 141.265 119.305 141.835 120.134C142.405 120.955 142.73 121.917 142.81 123.017H139.369C139.23 122.281 138.899 121.668 138.375 121.178C137.858 120.68 137.165 120.432 136.297 120.432C135.561 120.432 134.915 120.631 134.358 121.028C133.801 121.42 133.367 121.983 133.056 122.719C132.751 123.455 132.598 124.336 132.598 125.364C132.598 126.404 132.751 127.299 133.056 128.048C133.36 128.791 133.788 129.364 134.338 129.768C134.895 130.166 135.548 130.365 136.297 130.365C136.827 130.365 137.301 130.266 137.719 130.067C138.143 129.861 138.498 129.566 138.783 129.182C139.068 128.797 139.263 128.33 139.369 127.78H142.81C142.724 128.86 142.405 129.818 141.855 130.653C141.305 131.482 140.556 132.132 139.608 132.602C138.66 133.066 137.547 133.298 136.267 133.298ZM152.427 133.298C150.936 133.298 149.643 132.97 148.55 132.314C147.456 131.658 146.607 130.74 146.004 129.56C145.407 128.38 145.109 127.001 145.109 125.423C145.109 123.846 145.407 122.464 146.004 121.277C146.607 120.09 147.456 119.169 148.55 118.513C149.643 117.857 150.936 117.528 152.427 117.528C153.919 117.528 155.211 117.857 156.305 118.513C157.399 119.169 158.244 120.09 158.841 121.277C159.444 122.464 159.746 123.846 159.746 125.423C159.746 127.001 159.444 128.38 158.841 129.56C158.244 130.74 157.399 131.658 156.305 132.314C155.211 132.97 153.919 133.298 152.427 133.298ZM152.447 130.415C153.256 130.415 153.932 130.193 154.476 129.749C155.019 129.298 155.424 128.695 155.689 127.939C155.961 127.183 156.096 126.341 156.096 125.413C156.096 124.479 155.961 123.634 155.689 122.878C155.424 122.116 155.019 121.509 154.476 121.058C153.932 120.607 153.256 120.382 152.447 120.382C151.619 120.382 150.929 120.607 150.379 121.058C149.836 121.509 149.428 122.116 149.156 122.878C148.891 123.634 148.758 124.479 148.758 125.413C148.758 126.341 148.891 127.183 149.156 127.939C149.428 128.695 149.836 129.298 150.379 129.749C150.929 130.193 151.619 130.415 152.447 130.415ZM166.4 112.636V133H162.801V112.636H166.4ZM176.763 133.298C175.272 133.298 173.979 132.97 172.885 132.314C171.792 131.658 170.943 130.74 170.34 129.56C169.743 128.38 169.445 127.001 169.445 125.423C169.445 123.846 169.743 122.464 170.34 121.277C170.943 120.09 171.792 119.169 172.885 118.513C173.979 117.857 175.272 117.528 176.763 117.528C178.255 117.528 179.547 117.857 180.641 118.513C181.735 119.169 182.58 120.09 183.177 121.277C183.78 122.464 184.081 123.846 184.081 125.423C184.081 127.001 183.78 128.38 183.177 129.56C182.58 130.74 181.735 131.658 180.641 132.314C179.547 132.97 178.255 133.298 176.763 133.298ZM176.783 130.415C177.592 130.415 178.268 130.193 178.812 129.749C179.355 129.298 179.76 128.695 180.025 127.939C180.296 127.183 180.432 126.341 180.432 125.413C180.432 124.479 180.296 123.634 180.025 122.878C179.76 122.116 179.355 121.509 178.812 121.058C178.268 120.607 177.592 120.382 176.783 120.382C175.955 120.382 175.265 120.607 174.715 121.058C174.171 121.509 173.764 122.116 173.492 122.878C173.227 123.634 173.094 124.479 173.094 125.413C173.094 126.341 173.227 127.183 173.492 127.939C173.764 128.695 174.171 129.298 174.715 129.749C175.265 130.193 175.955 130.415 176.783 130.415ZM187.137 133V117.727H190.627V120.273H190.786C191.064 119.391 191.541 118.712 192.218 118.234C192.9 117.75 193.679 117.509 194.554 117.509C194.753 117.509 194.975 117.518 195.22 117.538C195.472 117.552 195.681 117.575 195.847 117.608V120.919C195.694 120.866 195.452 120.82 195.121 120.78C194.796 120.733 194.481 120.71 194.176 120.71C193.52 120.71 192.93 120.853 192.406 121.138C191.889 121.416 191.482 121.804 191.183 122.301C190.885 122.798 190.736 123.372 190.736 124.021V133H187.137Z" fill="#B83B5E"/>
</svg>
