<svg width="216" height="245" viewBox="0 0 216 245" fill="none" xmlns="http://www.w3.org/2000/svg">
<rect width="216" height="245" fill="#1E1E1E"/>
<rect width="216.433" height="244.967" fill="#344294"/>
<path d="M78.1108 85.5071H74.392C74.286 84.8973 74.0904 84.357 73.8054 83.8864C73.5204 83.4091 73.1657 83.0047 72.7415 82.6733C72.3172 82.3419 71.8333 82.0933 71.2898 81.9276C70.7528 81.7552 70.1728 81.669 69.5497 81.669C68.4427 81.669 67.4616 81.9474 66.6065 82.5043C65.7514 83.0544 65.0819 83.8632 64.598 84.9304C64.1141 85.991 63.8722 87.2869 63.8722 88.8182C63.8722 90.3759 64.1141 91.6884 64.598 92.7557C65.0885 93.8163 65.758 94.6184 66.6065 95.1619C67.4616 95.6989 68.4394 95.9673 69.5398 95.9673C70.1496 95.9673 70.7197 95.8878 71.25 95.7287C71.7869 95.563 72.2675 95.321 72.6918 95.0028C73.1226 94.6847 73.4839 94.2936 73.7756 93.8295C74.0739 93.3655 74.2794 92.8352 74.392 92.2386L78.1108 92.2585C77.9716 93.2263 77.67 94.1345 77.206 94.983C76.7486 95.8314 76.1487 96.5805 75.4062 97.2301C74.6638 97.8731 73.7955 98.3769 72.8011 98.7415C71.8068 99.0994 70.7031 99.2784 69.4901 99.2784C67.7003 99.2784 66.1027 98.8641 64.6974 98.0355C63.2921 97.2069 62.1851 96.0104 61.3764 94.446C60.5677 92.8816 60.1634 91.0057 60.1634 88.8182C60.1634 86.6241 60.571 84.7481 61.3864 83.1903C62.2017 81.6259 63.312 80.4295 64.7173 79.6009C66.1226 78.7723 67.7135 78.358 69.4901 78.358C70.6236 78.358 71.6776 78.517 72.652 78.8352C73.6264 79.1534 74.4948 79.6207 75.2571 80.2372C76.0194 80.8471 76.6458 81.5961 77.1364 82.4844C77.6335 83.366 77.9583 84.3736 78.1108 85.5071ZM81.3299 99V83.7273H84.82V86.2727H84.979C85.2575 85.3911 85.7347 84.7116 86.4109 84.2344C87.0936 83.7505 87.8725 83.5085 88.7475 83.5085C88.9464 83.5085 89.1684 83.5185 89.4137 83.5384C89.6656 83.5516 89.8744 83.5748 90.0401 83.608V86.919C89.8877 86.866 89.6457 86.8196 89.3143 86.7798C88.9895 86.7334 88.6746 86.7102 88.3697 86.7102C87.7134 86.7102 87.1235 86.8527 86.5998 87.1378C86.0827 87.4162 85.6751 87.804 85.3768 88.3011C85.0785 88.7983 84.9293 89.3717 84.9293 90.0213V99H81.3299ZM98.5639 99.2983C97.0327 99.2983 95.7102 98.9801 94.5966 98.3438C93.4896 97.7008 92.6378 96.7926 92.0412 95.6193C91.4446 94.4394 91.1463 93.0507 91.1463 91.4531C91.1463 89.8821 91.4446 88.5033 92.0412 87.3168C92.6444 86.1236 93.4863 85.1955 94.5668 84.5327C95.6473 83.8632 96.9167 83.5284 98.375 83.5284C99.3163 83.5284 100.205 83.6809 101.04 83.9858C101.882 84.2841 102.624 84.7481 103.267 85.3778C103.917 86.0076 104.427 86.8097 104.798 87.7841C105.17 88.7519 105.355 89.9053 105.355 91.2443V92.348H92.8366V89.9219H101.905C101.898 89.2325 101.749 88.6193 101.457 88.0824C101.166 87.5388 100.758 87.1113 100.234 86.7997C99.7173 86.4882 99.1141 86.3324 98.4247 86.3324C97.6889 86.3324 97.0426 86.5114 96.4858 86.8693C95.929 87.2206 95.4948 87.6847 95.1832 88.2614C94.8783 88.8314 94.7225 89.4579 94.7159 90.1406V92.2585C94.7159 93.1468 94.8783 93.9091 95.2031 94.5455C95.5279 95.1752 95.982 95.6591 96.5653 95.9972C97.1487 96.3286 97.8314 96.4943 98.6136 96.4943C99.1373 96.4943 99.6113 96.4214 100.036 96.2756C100.46 96.1231 100.828 95.901 101.139 95.6094C101.451 95.3177 101.686 94.9564 101.845 94.5256L105.206 94.9034C104.994 95.7917 104.589 96.5672 103.993 97.2301C103.403 97.8864 102.647 98.3968 101.726 98.7614C100.804 99.1193 99.7505 99.2983 98.5639 99.2983ZM112.795 99.3082C111.827 99.3082 110.956 99.1359 110.18 98.7912C109.411 98.4399 108.801 97.9228 108.35 97.2401C107.906 96.5573 107.684 95.7154 107.684 94.7145C107.684 93.8527 107.843 93.1402 108.162 92.5767C108.48 92.0133 108.914 91.5625 109.464 91.2244C110.014 90.8864 110.634 90.6312 111.324 90.4588C112.02 90.2798 112.739 90.1506 113.481 90.071C114.376 89.9782 115.102 89.8954 115.659 89.8224C116.216 89.7429 116.62 89.6236 116.872 89.4645C117.13 89.2988 117.26 89.0436 117.26 88.6989V88.6392C117.26 87.8902 117.038 87.3101 116.593 86.8991C116.149 86.4882 115.51 86.2827 114.674 86.2827C113.793 86.2827 113.093 86.4749 112.576 86.8594C112.066 87.2438 111.721 87.6979 111.542 88.2216L108.181 87.7443C108.447 86.8163 108.884 86.0407 109.494 85.4176C110.104 84.7879 110.85 84.3172 111.731 84.0057C112.613 83.6875 113.587 83.5284 114.654 83.5284C115.39 83.5284 116.123 83.6146 116.852 83.7869C117.581 83.9593 118.247 84.2443 118.85 84.642C119.454 85.0331 119.938 85.5668 120.302 86.2429C120.673 86.919 120.859 87.7642 120.859 88.7784V99H117.399V96.902H117.279C117.061 97.3262 116.752 97.724 116.355 98.0952C115.964 98.4598 115.47 98.7547 114.873 98.9801C114.283 99.1989 113.591 99.3082 112.795 99.3082ZM113.73 96.6634C114.452 96.6634 115.079 96.5208 115.609 96.2358C116.139 95.9441 116.547 95.5597 116.832 95.0824C117.124 94.6051 117.27 94.0848 117.27 93.5213V91.7216C117.157 91.8144 116.965 91.9006 116.693 91.9801C116.428 92.0597 116.129 92.1293 115.798 92.1889C115.467 92.2486 115.138 92.3016 114.814 92.348C114.489 92.3944 114.207 92.4342 113.968 92.4673C113.431 92.5402 112.951 92.6596 112.527 92.8253C112.102 92.991 111.768 93.223 111.522 93.5213C111.277 93.813 111.154 94.1908 111.154 94.6548C111.154 95.3177 111.396 95.8182 111.88 96.1562C112.364 96.4943 112.981 96.6634 113.73 96.6634ZM132.105 83.7273V86.5114H123.325V83.7273H132.105ZM125.493 80.0682H129.092V94.4062C129.092 94.8902 129.165 95.2614 129.311 95.5199C129.463 95.7718 129.662 95.9441 129.907 96.0369C130.153 96.1297 130.424 96.1761 130.723 96.1761C130.948 96.1761 131.154 96.1596 131.339 96.1264C131.531 96.0933 131.677 96.0634 131.777 96.0369L132.383 98.8509C132.191 98.9171 131.916 98.9901 131.558 99.0696C131.207 99.1491 130.776 99.1955 130.265 99.2088C129.364 99.2353 128.552 99.0994 127.829 98.8011C127.107 98.4962 126.533 98.0256 126.109 97.3892C125.691 96.7528 125.486 95.9574 125.493 95.0028V80.0682ZM141.712 99.2983C140.181 99.2983 138.859 98.9801 137.745 98.3438C136.638 97.7008 135.786 96.7926 135.19 95.6193C134.593 94.4394 134.295 93.0507 134.295 91.4531C134.295 89.8821 134.593 88.5033 135.19 87.3168C135.793 86.1236 136.635 85.1955 137.715 84.5327C138.796 83.8632 140.065 83.5284 141.523 83.5284C142.465 83.5284 143.353 83.6809 144.188 83.9858C145.03 84.2841 145.772 84.7481 146.415 85.3778C147.065 86.0076 147.576 86.8097 147.947 87.7841C148.318 88.7519 148.504 89.9053 148.504 91.2443V92.348H135.985V89.9219H145.053C145.047 89.2325 144.897 88.6193 144.606 88.0824C144.314 87.5388 143.906 87.1113 143.383 86.7997C142.866 86.4882 142.263 86.3324 141.573 86.3324C140.837 86.3324 140.191 86.5114 139.634 86.8693C139.077 87.2206 138.643 87.6847 138.332 88.2614C138.027 88.8314 137.871 89.4579 137.864 90.1406V92.2585C137.864 93.1468 138.027 93.9091 138.352 94.5455C138.676 95.1752 139.13 95.6591 139.714 95.9972C140.297 96.3286 140.98 96.4943 141.762 96.4943C142.286 96.4943 142.76 96.4214 143.184 96.2756C143.608 96.1231 143.976 95.901 144.288 95.6094C144.599 95.3177 144.835 94.9564 144.994 94.5256L148.354 94.9034C148.142 95.7917 147.738 96.5672 147.141 97.2301C146.551 97.8864 145.796 98.3968 144.874 98.7614C143.953 99.1193 142.899 99.2983 141.712 99.2983ZM155.775 96.2159L155.645 97.3097C155.552 98.1449 155.387 98.9934 155.148 99.8551C154.916 100.723 154.671 101.522 154.412 102.251C154.154 102.981 153.945 103.554 153.786 103.972H151.36C151.453 103.567 151.578 103.017 151.738 102.321C151.903 101.625 152.062 100.843 152.215 99.9744C152.367 99.1061 152.47 98.2244 152.523 97.3295L152.593 96.2159H155.775ZM47.1353 121.764L43.854 122.122C43.7612 121.791 43.5988 121.479 43.3668 121.188C43.1415 120.896 42.8365 120.661 42.4521 120.482C42.0676 120.303 41.5969 120.213 41.0401 120.213C40.2911 120.213 39.6613 120.375 39.1509 120.7C38.6471 121.025 38.3986 121.446 38.4052 121.963C38.3986 122.407 38.561 122.768 38.8924 123.047C39.2305 123.325 39.7873 123.554 40.5629 123.733L43.168 124.29C44.613 124.601 45.6869 125.095 46.3896 125.771C47.0988 126.447 47.4568 127.332 47.4634 128.426C47.4568 129.387 47.1751 130.236 46.6183 130.972C46.0681 131.701 45.3024 132.271 44.3214 132.682C43.3403 133.093 42.2134 133.298 40.9407 133.298C39.0714 133.298 37.5666 132.907 36.4265 132.125C35.2863 131.336 34.6069 130.239 34.3881 128.834L37.8981 128.496C38.0572 129.185 38.3952 129.705 38.9123 130.057C39.4293 130.408 40.1022 130.584 40.9308 130.584C41.7859 130.584 42.4719 130.408 42.989 130.057C43.5127 129.705 43.7745 129.271 43.7745 128.754C43.7745 128.317 43.6055 127.955 43.2674 127.67C42.936 127.385 42.4189 127.167 41.7163 127.014L39.1112 126.467C37.6462 126.162 36.5624 125.649 35.8597 124.926C35.1571 124.197 34.8091 123.276 34.8157 122.162C34.8091 121.221 35.0643 120.405 35.5813 119.716C36.105 119.02 36.8308 118.483 37.7589 118.105C38.6935 117.721 39.7707 117.528 40.9904 117.528C42.7802 117.528 44.1888 117.91 45.2163 118.672C46.2504 119.434 46.89 120.465 47.1353 121.764ZM57.1928 133.298C55.6616 133.298 54.3391 132.98 53.2255 132.344C52.1185 131.701 51.2667 130.793 50.6701 129.619C50.0735 128.439 49.7752 127.051 49.7752 125.453C49.7752 123.882 50.0735 122.503 50.6701 121.317C51.2733 120.124 52.1152 119.196 53.1957 118.533C54.2762 117.863 55.5456 117.528 57.0039 117.528C57.9452 117.528 58.8335 117.681 59.6687 117.986C60.5105 118.284 61.253 118.748 61.896 119.378C62.5456 120.008 63.056 120.81 63.4272 121.784C63.7984 122.752 63.984 123.905 63.984 125.244V126.348H51.4656V123.922H60.5337C60.5271 123.232 60.378 122.619 60.0863 122.082C59.7946 121.539 59.387 121.111 58.8633 120.8C58.3462 120.488 57.743 120.332 57.0536 120.332C56.3178 120.332 55.6715 120.511 55.1147 120.869C54.5579 121.221 54.1237 121.685 53.8121 122.261C53.5072 122.831 53.3514 123.458 53.3448 124.141V126.259C53.3448 127.147 53.5072 127.909 53.832 128.545C54.1568 129.175 54.6109 129.659 55.1942 129.997C55.7776 130.329 56.4603 130.494 57.2425 130.494C57.7662 130.494 58.2402 130.421 58.6644 130.276C59.0887 130.123 59.4566 129.901 59.7681 129.609C60.0797 129.318 60.315 128.956 60.4741 128.526L63.8349 128.903C63.6228 129.792 63.2184 130.567 62.6218 131.23C62.0318 131.886 61.2762 132.397 60.3548 132.761C59.4334 133.119 58.3794 133.298 57.1928 133.298ZM71.424 133.308C70.4562 133.308 69.5845 133.136 68.8089 132.791C68.04 132.44 67.4302 131.923 66.9794 131.24C66.5353 130.557 66.3132 129.715 66.3132 128.714C66.3132 127.853 66.4723 127.14 66.7905 126.577C67.1087 126.013 67.5429 125.562 68.093 125.224C68.6432 124.886 69.263 124.631 69.9524 124.459C70.6484 124.28 71.3677 124.151 72.1101 124.071C73.005 123.978 73.7308 123.895 74.2876 123.822C74.8445 123.743 75.2488 123.624 75.5007 123.464C75.7592 123.299 75.8885 123.044 75.8885 122.699V122.639C75.8885 121.89 75.6664 121.31 75.2223 120.899C74.7782 120.488 74.1385 120.283 73.3033 120.283C72.4216 120.283 71.7223 120.475 71.2053 120.859C70.6948 121.244 70.3501 121.698 70.1712 122.222L66.8104 121.744C67.0755 120.816 67.513 120.041 68.1229 119.418C68.7327 118.788 69.4785 118.317 70.3601 118.006C71.2417 117.688 72.2161 117.528 73.2834 117.528C74.0192 117.528 74.7517 117.615 75.4808 117.787C76.21 117.959 76.8762 118.244 77.4794 118.642C78.0826 119.033 78.5665 119.567 78.9311 120.243C79.3023 120.919 79.4879 121.764 79.4879 122.778V133H76.0277V130.902H75.9084C75.6896 131.326 75.3814 131.724 74.9837 132.095C74.5926 132.46 74.0987 132.755 73.5021 132.98C72.9122 133.199 72.2195 133.308 71.424 133.308ZM72.3587 130.663C73.0812 130.663 73.7076 130.521 74.2379 130.236C74.7682 129.944 75.1759 129.56 75.4609 129.082C75.7526 128.605 75.8984 128.085 75.8984 127.521V125.722C75.7857 125.814 75.5935 125.901 75.3217 125.98C75.0566 126.06 74.7583 126.129 74.4268 126.189C74.0954 126.249 73.7673 126.302 73.4425 126.348C73.1177 126.394 72.8359 126.434 72.5973 126.467C72.0604 126.54 71.5798 126.66 71.1555 126.825C70.7313 126.991 70.3965 127.223 70.1513 127.521C69.906 127.813 69.7834 128.191 69.7834 128.655C69.7834 129.318 70.0253 129.818 70.5092 130.156C70.9931 130.494 71.6096 130.663 72.3587 130.663ZM83.1072 133V117.727H86.5973V120.273H86.7564C87.0348 119.391 87.5121 118.712 88.1882 118.234C88.871 117.75 89.6499 117.509 90.5249 117.509C90.7237 117.509 90.9458 117.518 91.1911 117.538C91.4429 117.552 91.6518 117.575 91.8175 117.608V120.919C91.665 120.866 91.4231 120.82 91.0916 120.78C90.7668 120.733 90.4519 120.71 90.147 120.71C89.4908 120.71 88.9008 120.853 88.3771 121.138C87.8601 121.416 87.4524 121.804 87.1541 122.301C86.8558 122.798 86.7067 123.372 86.7067 124.021V133H83.1072ZM100.242 133.298C98.7172 133.298 97.408 132.964 96.3143 132.294C95.2272 131.625 94.3886 130.7 93.7987 129.52C93.2153 128.333 92.9237 126.968 92.9237 125.423C92.9237 123.872 93.2219 122.503 93.8185 121.317C94.4151 120.124 95.257 119.196 96.3441 118.533C97.4379 117.863 98.7305 117.528 100.222 117.528C101.462 117.528 102.559 117.757 103.513 118.214C104.474 118.665 105.24 119.305 105.81 120.134C106.38 120.955 106.705 121.917 106.784 123.017H103.344C103.205 122.281 102.873 121.668 102.35 121.178C101.833 120.68 101.14 120.432 100.272 120.432C99.5359 120.432 98.8896 120.631 98.3327 121.028C97.7759 121.42 97.3417 121.983 97.0302 122.719C96.7253 123.455 96.5728 124.336 96.5728 125.364C96.5728 126.404 96.7253 127.299 97.0302 128.048C97.3351 128.791 97.7627 129.364 98.3129 129.768C98.8697 130.166 99.5226 130.365 100.272 130.365C100.802 130.365 101.276 130.266 101.694 130.067C102.118 129.861 102.472 129.566 102.757 129.182C103.042 128.797 103.238 128.33 103.344 127.78H106.784C106.698 128.86 106.38 129.818 105.83 130.653C105.28 131.482 104.531 132.132 103.583 132.602C102.635 133.066 101.521 133.298 100.242 133.298ZM113.339 124.051V133H109.74V112.636H113.26V120.322H113.439C113.797 119.461 114.35 118.781 115.099 118.284C115.855 117.78 116.816 117.528 117.983 117.528C119.044 117.528 119.968 117.75 120.757 118.195C121.546 118.639 122.156 119.288 122.587 120.143C123.024 120.999 123.243 122.043 123.243 123.276V133H119.643V123.832C119.643 122.805 119.378 122.006 118.848 121.436C118.324 120.859 117.589 120.571 116.641 120.571C116.004 120.571 115.434 120.71 114.93 120.989C114.433 121.26 114.042 121.655 113.757 122.172C113.479 122.689 113.339 123.315 113.339 124.051ZM138.252 133.308C137.284 133.308 136.413 133.136 135.637 132.791C134.868 132.44 134.258 131.923 133.808 131.24C133.363 130.557 133.141 129.715 133.141 128.714C133.141 127.853 133.3 127.14 133.619 126.577C133.937 126.013 134.371 125.562 134.921 125.224C135.471 124.886 136.091 124.631 136.781 124.459C137.477 124.28 138.196 124.151 138.938 124.071C139.833 123.978 140.559 123.895 141.116 123.822C141.673 123.743 142.077 123.624 142.329 123.464C142.587 123.299 142.717 123.044 142.717 122.699V122.639C142.717 121.89 142.495 121.31 142.05 120.899C141.606 120.488 140.967 120.283 140.131 120.283C139.25 120.283 138.55 120.475 138.033 120.859C137.523 121.244 137.178 121.698 136.999 122.222L133.638 121.744C133.904 120.816 134.341 120.041 134.951 119.418C135.561 118.788 136.307 118.317 137.188 118.006C138.07 117.688 139.044 117.528 140.112 117.528C140.847 117.528 141.58 117.615 142.309 117.787C143.038 117.959 143.704 118.244 144.308 118.642C144.911 119.033 145.395 119.567 145.759 120.243C146.13 120.919 146.316 121.764 146.316 122.778V133H142.856V130.902H142.737C142.518 131.326 142.21 131.724 141.812 132.095C141.421 132.46 140.927 132.755 140.33 132.98C139.74 133.199 139.048 133.308 138.252 133.308ZM139.187 130.663C139.909 130.663 140.536 130.521 141.066 130.236C141.596 129.944 142.004 129.56 142.289 129.082C142.581 128.605 142.727 128.085 142.727 127.521V125.722C142.614 125.814 142.422 125.901 142.15 125.98C141.885 126.06 141.586 126.129 141.255 126.189C140.924 126.249 140.595 126.302 140.271 126.348C139.946 126.394 139.664 126.434 139.425 126.467C138.888 126.54 138.408 126.66 137.984 126.825C137.559 126.991 137.225 127.223 136.979 127.521C136.734 127.813 136.612 128.191 136.612 128.655C136.612 129.318 136.853 129.818 137.337 130.156C137.821 130.494 138.438 130.663 139.187 130.663ZM153.535 124.051V133H149.935V117.727H153.376V120.322H153.555C153.906 119.467 154.466 118.788 155.235 118.284C156.011 117.78 156.969 117.528 158.109 117.528C159.163 117.528 160.081 117.754 160.863 118.205C161.652 118.655 162.262 119.308 162.692 120.163C163.13 121.018 163.345 122.056 163.339 123.276V133H159.739V123.832C159.739 122.812 159.474 122.013 158.944 121.436C158.42 120.859 157.694 120.571 156.766 120.571C156.137 120.571 155.576 120.71 155.086 120.989C154.602 121.26 154.221 121.655 153.942 122.172C153.671 122.689 153.535 123.315 153.535 124.051ZM172.665 133.268C171.466 133.268 170.392 132.96 169.444 132.344C168.496 131.727 167.747 130.832 167.197 129.659C166.647 128.486 166.371 127.061 166.371 125.384C166.371 123.687 166.65 122.255 167.207 121.088C167.77 119.915 168.529 119.03 169.484 118.433C170.438 117.83 171.502 117.528 172.675 117.528C173.57 117.528 174.306 117.681 174.883 117.986C175.46 118.284 175.917 118.645 176.255 119.07C176.593 119.487 176.855 119.882 177.04 120.253H177.19V112.636H180.799V133H177.259V130.594H177.04C176.855 130.965 176.586 131.359 176.235 131.777C175.884 132.188 175.42 132.539 174.843 132.831C174.266 133.123 173.54 133.268 172.665 133.268ZM173.67 130.315C174.432 130.315 175.082 130.11 175.619 129.699C176.156 129.281 176.563 128.701 176.842 127.959C177.12 127.216 177.259 126.351 177.259 125.364C177.259 124.376 177.12 123.518 176.842 122.788C176.57 122.059 176.165 121.492 175.629 121.088C175.098 120.684 174.445 120.482 173.67 120.482C172.868 120.482 172.198 120.69 171.661 121.108C171.124 121.526 170.72 122.102 170.448 122.838C170.176 123.574 170.04 124.416 170.04 125.364C170.04 126.318 170.176 127.17 170.448 127.919C170.727 128.661 171.134 129.248 171.671 129.679C172.215 130.103 172.881 130.315 173.67 130.315ZM31.1752 167.268C29.9754 167.268 28.9016 166.96 27.9537 166.344C27.0057 165.727 26.2567 164.832 25.7065 163.659C25.1563 162.486 24.8812 161.061 24.8812 159.384C24.8812 157.687 25.1596 156.255 25.7164 155.088C26.2799 153.915 27.0389 153.03 27.9934 152.433C28.948 151.83 30.0119 151.528 31.1852 151.528C32.0801 151.528 32.8159 151.681 33.3926 151.986C33.9693 152.284 34.4267 152.645 34.7647 153.07C35.1028 153.487 35.3646 153.882 35.5502 154.253H35.6994V146.636H39.3088V167H35.769V164.594H35.5502C35.3646 164.965 35.0962 165.359 34.7449 165.777C34.3935 166.188 33.9295 166.539 33.3528 166.831C32.7761 167.123 32.0502 167.268 31.1752 167.268ZM32.1795 164.315C32.9418 164.315 33.5914 164.11 34.1284 163.699C34.6653 163.281 35.073 162.701 35.3514 161.959C35.6298 161.216 35.769 160.351 35.769 159.364C35.769 158.376 35.6298 157.518 35.3514 156.788C35.0796 156.059 34.6752 155.492 34.1383 155.088C33.608 154.684 32.9551 154.482 32.1795 154.482C31.3774 154.482 30.7079 154.69 30.171 155.108C29.6341 155.526 29.2297 156.102 28.9579 156.838C28.6861 157.574 28.5502 158.416 28.5502 159.364C28.5502 160.318 28.6861 161.17 28.9579 161.919C29.2363 162.661 29.644 163.248 30.1809 163.679C30.7245 164.103 31.3907 164.315 32.1795 164.315ZM49.9057 167.298C48.3745 167.298 47.052 166.98 45.9384 166.344C44.8314 165.701 43.9796 164.793 43.383 163.619C42.7864 162.439 42.4881 161.051 42.4881 159.453C42.4881 157.882 42.7864 156.503 43.383 155.317C43.9862 154.124 44.8281 153.196 45.9086 152.533C46.9891 151.863 48.2585 151.528 49.7168 151.528C50.6581 151.528 51.5463 151.681 52.3816 151.986C53.2234 152.284 53.9659 152.748 54.6088 153.378C55.2585 154.008 55.7689 154.81 56.1401 155.784C56.5113 156.752 56.6969 157.905 56.6969 159.244V160.348H44.1784V157.922H53.2466C53.24 157.232 53.0909 156.619 52.7992 156.082C52.5075 155.539 52.0998 155.111 51.5762 154.8C51.0591 154.488 50.4559 154.332 49.7665 154.332C49.0307 154.332 48.3844 154.511 47.8276 154.869C47.2708 155.221 46.8366 155.685 46.525 156.261C46.2201 156.831 46.0643 157.458 46.0577 158.141V160.259C46.0577 161.147 46.2201 161.909 46.5449 162.545C46.8697 163.175 47.3238 163.659 47.9071 163.997C48.4905 164.329 49.1732 164.494 49.9554 164.494C50.4791 164.494 50.9531 164.421 51.3773 164.276C51.8016 164.123 52.1694 163.901 52.481 163.609C52.7926 163.318 53.0279 162.956 53.187 162.526L56.5478 162.903C56.3356 163.792 55.9313 164.567 55.3347 165.23C54.7447 165.886 53.9891 166.397 53.0676 166.761C52.1462 167.119 51.0923 167.298 49.9057 167.298ZM63.3414 146.636V167H59.742V146.636H63.3414ZM73.8042 167.298C72.2729 167.298 70.9505 166.98 69.8368 166.344C68.7298 165.701 67.878 164.793 67.2814 163.619C66.6848 162.439 66.3865 161.051 66.3865 159.453C66.3865 157.882 66.6848 156.503 67.2814 155.317C67.8846 154.124 68.7265 153.196 69.807 152.533C70.8875 151.863 72.1569 151.528 73.6152 151.528C74.5565 151.528 75.4448 151.681 76.28 151.986C77.1219 152.284 77.8643 152.748 78.5073 153.378C79.1569 154.008 79.6673 154.81 80.0385 155.784C80.4097 156.752 80.5953 157.905 80.5953 159.244V160.348H68.0769V157.922H77.1451C77.1384 157.232 76.9893 156.619 76.6976 156.082C76.406 155.539 75.9983 155.111 75.4746 154.8C74.9576 154.488 74.3543 154.332 73.665 154.332C72.9292 154.332 72.2828 154.511 71.726 154.869C71.1692 155.221 70.735 155.685 70.4235 156.261C70.1185 156.831 69.9628 157.458 69.9561 158.141V160.259C69.9561 161.147 70.1185 161.909 70.4434 162.545C70.7682 163.175 71.2222 163.659 71.8056 163.997C72.3889 164.329 73.0717 164.494 73.8539 164.494C74.3775 164.494 74.8515 164.421 75.2757 164.276C75.7 164.123 76.0679 163.901 76.3794 163.609C76.691 163.318 76.9263 162.956 77.0854 162.526L80.4462 162.903C80.2341 163.792 79.8297 164.567 79.2331 165.23C78.6432 165.886 77.8875 166.397 76.9661 166.761C76.0447 167.119 74.9907 167.298 73.8042 167.298ZM91.2669 151.727V154.511H82.487V151.727H91.2669ZM84.6547 148.068H88.2541V162.406C88.2541 162.89 88.327 163.261 88.4728 163.52C88.6253 163.772 88.8242 163.944 89.0694 164.037C89.3147 164.13 89.5865 164.176 89.8848 164.176C90.1101 164.176 90.3156 164.16 90.5012 164.126C90.6935 164.093 90.8393 164.063 90.9387 164.037L91.5453 166.851C91.353 166.917 91.0779 166.99 90.72 167.07C90.3687 167.149 89.9378 167.196 89.4274 167.209C88.5259 167.235 87.7138 167.099 86.9913 166.801C86.2688 166.496 85.6954 166.026 85.2711 165.389C84.8535 164.753 84.648 163.957 84.6547 163.003V148.068ZM100.874 167.298C99.3432 167.298 98.0208 166.98 96.9071 166.344C95.8001 165.701 94.9483 164.793 94.3517 163.619C93.7551 162.439 93.4569 161.051 93.4569 159.453C93.4569 157.882 93.7551 156.503 94.3517 155.317C94.955 154.124 95.7968 153.196 96.8773 152.533C97.9578 151.863 99.2272 151.528 100.686 151.528C101.627 151.528 102.515 151.681 103.35 151.986C104.192 152.284 104.935 152.748 105.578 153.378C106.227 154.008 106.738 154.81 107.109 155.784C107.48 156.752 107.666 157.905 107.666 159.244V160.348H95.1472V157.922H104.215C104.209 157.232 104.06 156.619 103.768 156.082C103.476 155.539 103.069 155.111 102.545 154.8C102.028 154.488 101.425 154.332 100.735 154.332C99.9995 154.332 99.3532 154.511 98.7963 154.869C98.2395 155.221 97.8053 155.685 97.4938 156.261C97.1889 156.831 97.0331 157.458 97.0265 158.141V160.259C97.0265 161.147 97.1889 161.909 97.5137 162.545C97.8385 163.175 98.2926 163.659 98.8759 163.997C99.4592 164.329 100.142 164.494 100.924 164.494C101.448 164.494 101.922 164.421 102.346 164.276C102.77 164.123 103.138 163.901 103.45 163.609C103.761 163.318 103.997 162.956 104.156 162.526L107.517 162.903C107.304 163.792 106.9 164.567 106.303 165.23C105.713 165.886 104.958 166.397 104.036 166.761C103.115 167.119 102.061 167.298 100.874 167.298Z" fill="white"/>
<path d="M121.256 158.051V167H117.656V151.727H121.096V154.322H121.275C121.627 153.467 122.187 152.788 122.956 152.284C123.731 151.78 124.689 151.528 125.829 151.528C126.883 151.528 127.801 151.754 128.584 152.205C129.372 152.655 129.982 153.308 130.413 154.163C130.851 155.018 131.066 156.056 131.059 157.276V167H127.46V157.832C127.46 156.812 127.195 156.013 126.665 155.436C126.141 154.859 125.415 154.571 124.487 154.571C123.857 154.571 123.297 154.71 122.807 154.989C122.323 155.26 121.942 155.655 121.663 156.172C121.391 156.689 121.256 157.315 121.256 158.051ZM141.381 167.298C139.889 167.298 138.596 166.97 137.503 166.314C136.409 165.658 135.56 164.74 134.957 163.56C134.361 162.38 134.062 161.001 134.062 159.423C134.062 157.846 134.361 156.464 134.957 155.277C135.56 154.09 136.409 153.169 137.503 152.513C138.596 151.857 139.889 151.528 141.381 151.528C142.872 151.528 144.165 151.857 145.258 152.513C146.352 153.169 147.197 154.09 147.794 155.277C148.397 156.464 148.699 157.846 148.699 159.423C148.699 161.001 148.397 162.38 147.794 163.56C147.197 164.74 146.352 165.658 145.258 166.314C144.165 166.97 142.872 167.298 141.381 167.298ZM141.4 164.415C142.209 164.415 142.885 164.193 143.429 163.749C143.972 163.298 144.377 162.695 144.642 161.939C144.914 161.183 145.05 160.341 145.05 159.413C145.05 158.479 144.914 157.634 144.642 156.878C144.377 156.116 143.972 155.509 143.429 155.058C142.885 154.607 142.209 154.382 141.4 154.382C140.572 154.382 139.882 154.607 139.332 155.058C138.789 155.509 138.381 156.116 138.109 156.878C137.844 157.634 137.711 158.479 137.711 159.413C137.711 160.341 137.844 161.183 138.109 161.939C138.381 162.695 138.789 163.298 139.332 163.749C139.882 164.193 140.572 164.415 141.4 164.415ZM159.38 151.727V154.511H150.6V151.727H159.38ZM152.768 148.068H156.367V162.406C156.367 162.89 156.44 163.261 156.586 163.52C156.739 163.772 156.937 163.944 157.183 164.037C157.428 164.13 157.7 164.176 157.998 164.176C158.223 164.176 158.429 164.16 158.615 164.126C158.807 164.093 158.953 164.063 159.052 164.037L159.659 166.851C159.466 166.917 159.191 166.99 158.833 167.07C158.482 167.149 158.051 167.196 157.541 167.209C156.639 167.235 155.827 167.099 155.105 166.801C154.382 166.496 153.809 166.026 153.384 165.389C152.967 164.753 152.761 163.957 152.768 163.003V148.068ZM168.988 167.298C167.456 167.298 166.134 166.98 165.02 166.344C163.913 165.701 163.062 164.793 162.465 163.619C161.868 162.439 161.57 161.051 161.57 159.453C161.57 157.882 161.868 156.503 162.465 155.317C163.068 154.124 163.91 153.196 164.991 152.533C166.071 151.863 167.34 151.528 168.799 151.528C169.74 151.528 170.628 151.681 171.464 151.986C172.305 152.284 173.048 152.748 173.691 153.378C174.34 154.008 174.851 154.81 175.222 155.784C175.593 156.752 175.779 157.905 175.779 159.244V160.348H163.26V157.922H172.329C172.322 157.232 172.173 156.619 171.881 156.082C171.59 155.539 171.182 155.111 170.658 154.8C170.141 154.488 169.538 154.332 168.849 154.332C168.113 154.332 167.466 154.511 166.91 154.869C166.353 155.221 165.919 155.685 165.607 156.261C165.302 156.831 165.146 157.458 165.14 158.141V160.259C165.14 161.147 165.302 161.909 165.627 162.545C165.952 163.175 166.406 163.659 166.989 163.997C167.573 164.329 168.255 164.494 169.037 164.494C169.561 164.494 170.035 164.421 170.459 164.276C170.884 164.123 171.251 163.901 171.563 163.609C171.875 163.318 172.11 162.956 172.269 162.526L175.63 162.903C175.418 163.792 175.013 164.567 174.417 165.23C173.827 165.886 173.071 166.397 172.15 166.761C171.228 167.119 170.174 167.298 168.988 167.298ZM190.895 155.764L187.614 156.122C187.521 155.791 187.359 155.479 187.127 155.188C186.901 154.896 186.596 154.661 186.212 154.482C185.827 154.303 185.357 154.213 184.8 154.213C184.051 154.213 183.421 154.375 182.911 154.7C182.407 155.025 182.158 155.446 182.165 155.963C182.158 156.407 182.321 156.768 182.652 157.047C182.99 157.325 183.547 157.554 184.323 157.733L186.928 158.29C188.373 158.601 189.447 159.095 190.149 159.771C190.859 160.447 191.217 161.332 191.223 162.426C191.217 163.387 190.935 164.236 190.378 164.972C189.828 165.701 189.062 166.271 188.081 166.682C187.1 167.093 185.973 167.298 184.7 167.298C182.831 167.298 181.326 166.907 180.186 166.125C179.046 165.336 178.367 164.239 178.148 162.834L181.658 162.496C181.817 163.185 182.155 163.705 182.672 164.057C183.189 164.408 183.862 164.584 184.691 164.584C185.546 164.584 186.232 164.408 186.749 164.057C187.272 163.705 187.534 163.271 187.534 162.754C187.534 162.317 187.365 161.955 187.027 161.67C186.696 161.385 186.179 161.167 185.476 161.014L182.871 160.467C181.406 160.162 180.322 159.649 179.619 158.926C178.917 158.197 178.569 157.276 178.575 156.162C178.569 155.221 178.824 154.405 179.341 153.716C179.865 153.02 180.591 152.483 181.519 152.105C182.453 151.721 183.53 151.528 184.75 151.528C186.54 151.528 187.949 151.91 188.976 152.672C190.01 153.434 190.65 154.465 190.895 155.764Z" fill="#B83B5E"/>
</svg>
