<svg width="216" height="246" viewBox="0 0 216 246" fill="none" xmlns="http://www.w3.org/2000/svg">
<rect width="216" height="246" fill="#1E1E1E"/>
<rect y="1" width="216.433" height="244.967" fill="#344294"/>
<path d="M49.8523 116V95.6364H63.0966V98.7287H53.5412V104.257H62.4105V107.349H53.5412V112.908H63.1761V116H49.8523ZM72.3686 116.268C71.1688 116.268 70.0949 115.96 69.147 115.344C68.1991 114.727 67.45 113.832 66.8999 112.659C66.3497 111.486 66.0746 110.061 66.0746 108.384C66.0746 106.687 66.353 105.255 66.9098 104.088C67.4732 102.915 68.2322 102.03 69.1868 101.433C70.1413 100.83 71.2053 100.528 72.3786 100.528C73.2734 100.528 74.0092 100.681 74.5859 100.986C75.1626 101.284 75.62 101.645 75.9581 102.07C76.2962 102.487 76.558 102.882 76.7436 103.253H76.8928V95.6364H80.5021V116H76.9624V113.594H76.7436C76.558 113.965 76.2895 114.359 75.9382 114.777C75.5869 115.188 75.1229 115.539 74.5462 115.831C73.9695 116.123 73.2436 116.268 72.3686 116.268ZM73.3729 113.315C74.1352 113.315 74.7848 113.11 75.3217 112.699C75.8587 112.281 76.2663 111.701 76.5447 110.959C76.8232 110.216 76.9624 109.351 76.9624 108.364C76.9624 107.376 76.8232 106.518 76.5447 105.788C76.273 105.059 75.8686 104.492 75.3317 104.088C74.8014 103.684 74.1484 103.482 73.3729 103.482C72.5708 103.482 71.9013 103.69 71.3643 104.108C70.8274 104.526 70.4231 105.102 70.1513 105.838C69.8795 106.574 69.7436 107.416 69.7436 108.364C69.7436 109.318 69.8795 110.17 70.1513 110.919C70.4297 111.661 70.8374 112.248 71.3743 112.679C71.9179 113.103 72.584 113.315 73.3729 113.315ZM84.3377 116V100.727H87.9371V116H84.3377ZM86.1474 98.5597C85.5773 98.5597 85.0868 98.3707 84.6758 97.9929C84.2648 97.6084 84.0593 97.1477 84.0593 96.6108C84.0593 96.0672 84.2648 95.6065 84.6758 95.2287C85.0868 94.8442 85.5773 94.652 86.1474 94.652C86.7241 94.652 87.2146 94.8442 87.619 95.2287C88.0299 95.6065 88.2354 96.0672 88.2354 96.6108C88.2354 97.1477 88.0299 97.6084 87.619 97.9929C87.2146 98.3707 86.7241 98.5597 86.1474 98.5597ZM99.2649 100.727V103.511H90.4851V100.727H99.2649ZM92.6527 97.0682H96.2521V111.406C96.2521 111.89 96.325 112.261 96.4709 112.52C96.6233 112.772 96.8222 112.944 97.0675 113.037C97.3127 113.13 97.5845 113.176 97.8828 113.176C98.1082 113.176 98.3137 113.16 98.4993 113.126C98.6915 113.093 98.8374 113.063 98.9368 113.037L99.5433 115.851C99.3511 115.917 99.076 115.99 98.718 116.07C98.3667 116.149 97.9358 116.196 97.4254 116.209C96.5239 116.235 95.7119 116.099 94.9893 115.801C94.2668 115.496 93.6934 115.026 93.2692 114.389C92.8516 113.753 92.6461 112.957 92.6527 112.003V97.0682ZM111.458 121.727C110.967 121.727 110.513 121.688 110.096 121.608C109.685 121.535 109.356 121.449 109.111 121.349L109.946 118.545C110.47 118.698 110.937 118.771 111.348 118.764C111.759 118.758 112.121 118.628 112.432 118.376C112.75 118.131 113.019 117.72 113.238 117.143L113.546 116.318L108.007 100.727H111.826L115.346 112.261H115.505L119.034 100.727H122.863L116.748 117.849C116.462 118.658 116.085 119.351 115.614 119.928C115.143 120.511 114.567 120.955 113.884 121.26C113.208 121.571 112.399 121.727 111.458 121.727ZM131.496 116.298C130.004 116.298 128.712 115.97 127.618 115.314C126.524 114.658 125.676 113.74 125.072 112.56C124.476 111.38 124.178 110.001 124.178 108.423C124.178 106.846 124.476 105.464 125.072 104.277C125.676 103.09 126.524 102.169 127.618 101.513C128.712 100.857 130.004 100.528 131.496 100.528C132.987 100.528 134.28 100.857 135.374 101.513C136.467 102.169 137.313 103.09 137.909 104.277C138.512 105.464 138.814 106.846 138.814 108.423C138.814 110.001 138.512 111.38 137.909 112.56C137.313 113.74 136.467 114.658 135.374 115.314C134.28 115.97 132.987 116.298 131.496 116.298ZM131.516 113.415C132.324 113.415 133 113.193 133.544 112.749C134.088 112.298 134.492 111.695 134.757 110.939C135.029 110.183 135.165 109.341 135.165 108.413C135.165 107.479 135.029 106.634 134.757 105.878C134.492 105.116 134.088 104.509 133.544 104.058C133 103.607 132.324 103.382 131.516 103.382C130.687 103.382 129.998 103.607 129.447 104.058C128.904 104.509 128.496 105.116 128.224 105.878C127.959 106.634 127.827 107.479 127.827 108.413C127.827 109.341 127.959 110.183 128.224 110.939C128.496 111.695 128.904 112.298 129.447 112.749C129.998 113.193 130.687 113.415 131.516 113.415ZM151.603 109.577V100.727H155.203V116H151.713V113.286H151.554C151.209 114.141 150.642 114.84 149.853 115.384C149.071 115.927 148.107 116.199 146.96 116.199C145.959 116.199 145.074 115.977 144.305 115.533C143.543 115.082 142.946 114.429 142.515 113.574C142.084 112.712 141.869 111.671 141.869 110.452V100.727H145.468V109.895C145.468 110.863 145.734 111.632 146.264 112.202C146.794 112.772 147.49 113.057 148.352 113.057C148.882 113.057 149.396 112.928 149.893 112.669C150.39 112.411 150.798 112.026 151.116 111.516C151.441 110.999 151.603 110.352 151.603 109.577ZM158.904 116V100.727H162.394V103.273H162.553C162.832 102.391 163.309 101.712 163.985 101.234C164.668 100.75 165.447 100.509 166.322 100.509C166.521 100.509 166.743 100.518 166.988 100.538C167.24 100.552 167.449 100.575 167.614 100.608V103.919C167.462 103.866 167.22 103.82 166.888 103.78C166.564 103.733 166.249 103.71 165.944 103.71C165.288 103.71 164.698 103.853 164.174 104.138C163.657 104.416 163.249 104.804 162.951 105.301C162.653 105.798 162.504 106.372 162.504 107.021V116H158.904ZM32.32 141.051V150H28.7205V134.727H32.1609V137.322H32.3398C32.6912 136.467 33.2513 135.788 34.0202 135.284C34.7958 134.78 35.7537 134.528 36.8938 134.528C37.9478 134.528 38.8659 134.754 39.6481 135.205C40.4369 135.655 41.0468 136.308 41.4776 137.163C41.9151 138.018 42.1306 139.056 42.1239 140.276V150H38.5245V140.832C38.5245 139.812 38.2594 139.013 37.729 138.436C37.2054 137.859 36.4795 137.571 35.5515 137.571C34.9218 137.571 34.3616 137.71 33.8711 137.989C33.3872 138.26 33.006 138.655 32.7276 139.172C32.4558 139.689 32.32 140.315 32.32 141.051ZM52.445 150.298C50.9535 150.298 49.6609 149.97 48.5671 149.314C47.4734 148.658 46.6249 147.74 46.0217 146.56C45.4251 145.38 45.1268 144.001 45.1268 142.423C45.1268 140.846 45.4251 139.464 46.0217 138.277C46.6249 137.09 47.4734 136.169 48.5671 135.513C49.6609 134.857 50.9535 134.528 52.445 134.528C53.9364 134.528 55.229 134.857 56.3228 135.513C57.4165 136.169 58.2617 137.09 58.8583 138.277C59.4615 139.464 59.7631 140.846 59.7631 142.423C59.7631 144.001 59.4615 145.38 58.8583 146.56C58.2617 147.74 57.4165 148.658 56.3228 149.314C55.229 149.97 53.9364 150.298 52.445 150.298ZM52.4648 147.415C53.2736 147.415 53.9497 147.193 54.4933 146.749C55.0368 146.298 55.4412 145.695 55.7063 144.939C55.9781 144.183 56.114 143.341 56.114 142.413C56.114 141.479 55.9781 140.634 55.7063 139.878C55.4412 139.116 55.0368 138.509 54.4933 138.058C53.9497 137.607 53.2736 137.382 52.4648 137.382C51.6362 137.382 50.9469 137.607 50.3967 138.058C49.8531 138.509 49.4454 139.116 49.1737 139.878C48.9085 140.634 48.7759 141.479 48.7759 142.413C48.7759 143.341 48.9085 144.183 49.1737 144.939C49.4454 145.695 49.8531 146.298 50.3967 146.749C50.9469 147.193 51.6362 147.415 52.4648 147.415ZM70.4446 134.727V137.511H61.6648V134.727H70.4446ZM63.8324 131.068H67.4318V145.406C67.4318 145.89 67.5047 146.261 67.6506 146.52C67.803 146.772 68.0019 146.944 68.2472 147.037C68.4924 147.13 68.7642 147.176 69.0625 147.176C69.2879 147.176 69.4934 147.16 69.679 147.126C69.8712 147.093 70.017 147.063 70.1165 147.037L70.723 149.851C70.5308 149.917 70.2557 149.99 69.8977 150.07C69.5464 150.149 69.1155 150.196 68.6051 150.209C67.7036 150.235 66.8916 150.099 66.169 149.801C65.4465 149.496 64.8731 149.026 64.4489 148.389C64.0313 147.753 63.8258 146.957 63.8324 146.003V131.068ZM80.0522 150.298C78.521 150.298 77.1985 149.98 76.0849 149.344C74.9779 148.701 74.1261 147.793 73.5295 146.619C72.9329 145.439 72.6346 144.051 72.6346 142.453C72.6346 140.882 72.9329 139.503 73.5295 138.317C74.1327 137.124 74.9746 136.196 76.055 135.533C77.1355 134.863 78.4049 134.528 79.8633 134.528C80.8046 134.528 81.6928 134.681 82.5281 134.986C83.3699 135.284 84.1123 135.748 84.7553 136.378C85.4049 137.008 85.9154 137.81 86.2866 138.784C86.6578 139.752 86.8434 140.905 86.8434 142.244V143.348H74.3249V140.922H83.3931C83.3865 140.232 83.2373 139.619 82.9457 139.082C82.654 138.539 82.2463 138.111 81.7227 137.8C81.2056 137.488 80.6024 137.332 79.913 137.332C79.1772 137.332 78.5309 137.511 77.9741 137.869C77.4173 138.221 76.9831 138.685 76.6715 139.261C76.3666 139.831 76.2108 140.458 76.2042 141.141V143.259C76.2042 144.147 76.3666 144.909 76.6914 145.545C77.0162 146.175 77.4703 146.659 78.0536 146.997C78.637 147.329 79.3197 147.494 80.1019 147.494C80.6256 147.494 81.0996 147.421 81.5238 147.276C81.948 147.123 82.3159 146.901 82.6275 146.609C82.939 146.318 83.1744 145.956 83.3335 145.526L86.6942 145.903C86.4821 146.792 86.0778 147.567 85.4812 148.23C84.8912 148.886 84.1355 149.397 83.2141 149.761C82.2927 150.119 81.2388 150.298 80.0522 150.298ZM101.96 138.764L98.6783 139.122C98.5855 138.791 98.4231 138.479 98.1911 138.188C97.9657 137.896 97.6607 137.661 97.2763 137.482C96.8918 137.303 96.4212 137.213 95.8643 137.213C95.1153 137.213 94.4856 137.375 93.9751 137.7C93.4714 138.025 93.2228 138.446 93.2294 138.963C93.2228 139.407 93.3852 139.768 93.7166 140.047C94.0547 140.325 94.6115 140.554 95.3871 140.733L97.9922 141.29C99.4373 141.601 100.511 142.095 101.214 142.771C101.923 143.447 102.281 144.332 102.288 145.426C102.281 146.387 101.999 147.236 101.442 147.972C100.892 148.701 100.127 149.271 99.1456 149.682C98.1645 150.093 97.0376 150.298 95.7649 150.298C93.8956 150.298 92.3909 149.907 91.2507 149.125C90.1106 148.336 89.4311 147.239 89.2124 145.834L92.7223 145.496C92.8814 146.185 93.2195 146.705 93.7365 147.057C94.2536 147.408 94.9264 147.584 95.755 147.584C96.6101 147.584 97.2962 147.408 97.8132 147.057C98.3369 146.705 98.5987 146.271 98.5987 145.754C98.5987 145.317 98.4297 144.955 98.0916 144.67C97.7602 144.385 97.2431 144.167 96.5405 144.014L93.9354 143.467C92.4704 143.162 91.3866 142.649 90.6839 141.926C89.9813 141.197 89.6333 140.276 89.6399 139.162C89.6333 138.221 89.8885 137.405 90.4055 136.716C90.9292 136.02 91.6551 135.483 92.5831 135.105C93.5178 134.721 94.5949 134.528 95.8146 134.528C97.6044 134.528 99.013 134.91 100.04 135.672C101.075 136.434 101.714 137.465 101.96 138.764Z" fill="white"/>
<path d="M118.962 150.298C117.431 150.298 116.109 149.98 114.995 149.344C113.888 148.701 113.036 147.793 112.44 146.619C111.843 145.439 111.545 144.051 111.545 142.453C111.545 140.882 111.843 139.503 112.44 138.317C113.043 137.124 113.885 136.196 114.965 135.533C116.046 134.863 117.315 134.528 118.773 134.528C119.715 134.528 120.603 134.681 121.438 134.986C122.28 135.284 123.022 135.748 123.665 136.378C124.315 137.008 124.826 137.81 125.197 138.784C125.568 139.752 125.754 140.905 125.754 142.244V143.348H113.235V140.922H122.303C122.297 140.232 122.147 139.619 121.856 139.082C121.564 138.539 121.156 138.111 120.633 137.8C120.116 137.488 119.513 137.332 118.823 137.332C118.087 137.332 117.441 137.511 116.884 137.869C116.327 138.221 115.893 138.685 115.582 139.261C115.277 139.831 115.121 140.458 115.114 141.141V143.259C115.114 144.147 115.277 144.909 115.602 145.545C115.926 146.175 116.38 146.659 116.964 146.997C117.547 147.329 118.23 147.494 119.012 147.494C119.536 147.494 120.01 147.421 120.434 147.276C120.858 147.123 121.226 146.901 121.538 146.609C121.849 146.318 122.085 145.956 122.244 145.526L125.604 145.903C125.392 146.792 124.988 147.567 124.391 148.23C123.801 148.886 123.046 149.397 122.124 149.761C121.203 150.119 120.149 150.298 118.962 150.298ZM133.194 150.308C132.226 150.308 131.354 150.136 130.578 149.791C129.81 149.44 129.2 148.923 128.749 148.24C128.305 147.557 128.083 146.715 128.083 145.714C128.083 144.853 128.242 144.14 128.56 143.577C128.878 143.013 129.312 142.562 129.863 142.224C130.413 141.886 131.033 141.631 131.722 141.459C132.418 141.28 133.137 141.151 133.88 141.071C134.775 140.978 135.5 140.895 136.057 140.822C136.614 140.743 137.018 140.624 137.27 140.464C137.529 140.299 137.658 140.044 137.658 139.699V139.639C137.658 138.89 137.436 138.31 136.992 137.899C136.548 137.488 135.908 137.283 135.073 137.283C134.191 137.283 133.492 137.475 132.975 137.859C132.464 138.244 132.12 138.698 131.941 139.222L128.58 138.744C128.845 137.816 129.283 137.041 129.892 136.418C130.502 135.788 131.248 135.317 132.13 135.006C133.011 134.688 133.986 134.528 135.053 134.528C135.789 134.528 136.521 134.615 137.25 134.787C137.98 134.959 138.646 135.244 139.249 135.642C139.852 136.033 140.336 136.567 140.701 137.243C141.072 137.919 141.257 138.764 141.257 139.778V150H137.797V147.902H137.678C137.459 148.326 137.151 148.724 136.753 149.095C136.362 149.46 135.868 149.755 135.272 149.98C134.682 150.199 133.989 150.308 133.194 150.308ZM134.128 147.663C134.851 147.663 135.477 147.521 136.007 147.236C136.538 146.944 136.945 146.56 137.23 146.082C137.522 145.605 137.668 145.085 137.668 144.521V142.722C137.555 142.814 137.363 142.901 137.091 142.98C136.826 143.06 136.528 143.129 136.196 143.189C135.865 143.249 135.537 143.302 135.212 143.348C134.887 143.394 134.605 143.434 134.367 143.467C133.83 143.54 133.349 143.66 132.925 143.825C132.501 143.991 132.166 144.223 131.921 144.521C131.676 144.813 131.553 145.191 131.553 145.655C131.553 146.318 131.795 146.818 132.279 147.156C132.763 147.494 133.379 147.663 134.128 147.663ZM156.948 138.764L153.667 139.122C153.574 138.791 153.411 138.479 153.179 138.188C152.954 137.896 152.649 137.661 152.265 137.482C151.88 137.303 151.409 137.213 150.853 137.213C150.104 137.213 149.474 137.375 148.963 137.7C148.46 138.025 148.211 138.446 148.218 138.963C148.211 139.407 148.373 139.768 148.705 140.047C149.043 140.325 149.6 140.554 150.375 140.733L152.98 141.29C154.426 141.601 155.499 142.095 156.202 142.771C156.911 143.447 157.269 144.332 157.276 145.426C157.269 146.387 156.988 147.236 156.431 147.972C155.881 148.701 155.115 149.271 154.134 149.682C153.153 150.093 152.026 150.298 150.753 150.298C148.884 150.298 147.379 149.907 146.239 149.125C145.099 148.336 144.419 147.239 144.201 145.834L147.711 145.496C147.87 146.185 148.208 146.705 148.725 147.057C149.242 147.408 149.915 147.584 150.743 147.584C151.598 147.584 152.284 147.408 152.801 147.057C153.325 146.705 153.587 146.271 153.587 145.754C153.587 145.317 153.418 144.955 153.08 144.67C152.748 144.385 152.231 144.167 151.529 144.014L148.924 143.467C147.459 143.162 146.375 142.649 145.672 141.926C144.97 141.197 144.622 140.276 144.628 139.162C144.622 138.221 144.877 137.405 145.394 136.716C145.917 136.02 146.643 135.483 147.571 135.105C148.506 134.721 149.583 134.528 150.803 134.528C152.593 134.528 154.001 134.91 155.029 135.672C156.063 136.434 156.703 137.465 156.948 138.764ZM160.244 150V134.727H163.843V150H160.244ZM162.054 132.56C161.484 132.56 160.993 132.371 160.582 131.993C160.171 131.608 159.966 131.148 159.966 130.611C159.966 130.067 160.171 129.607 160.582 129.229C160.993 128.844 161.484 128.652 162.054 128.652C162.63 128.652 163.121 128.844 163.525 129.229C163.936 129.607 164.142 130.067 164.142 130.611C164.142 131.148 163.936 131.608 163.525 131.993C163.121 132.371 162.63 132.56 162.054 132.56ZM171.144 129.636V150H167.545V129.636H171.144ZM177.083 155.727C176.592 155.727 176.138 155.688 175.721 155.608C175.31 155.535 174.981 155.449 174.736 155.349L175.571 152.545C176.095 152.698 176.562 152.771 176.973 152.764C177.384 152.758 177.746 152.628 178.057 152.376C178.375 152.131 178.644 151.72 178.863 151.143L179.171 150.318L173.632 134.727H177.451L180.971 146.261H181.13L184.659 134.727H188.488L182.373 151.849C182.087 152.658 181.71 153.351 181.239 153.928C180.768 154.511 180.192 154.955 179.509 155.26C178.833 155.571 178.024 155.727 177.083 155.727Z" fill="#B83B5E"/>
</svg>
