<svg width="216" height="245" viewBox="0 0 216 245" fill="none" xmlns="http://www.w3.org/2000/svg">
<path d="M0 2.00001C0 0.895436 0.895431 0 2 0H214.43C215.535 0 216.43 0.895431 216.43 2V242.97C216.43 244.075 215.535 244.97 214.43 244.97H2C0.895431 244.97 0 244.075 0 242.97V2.00001Z" fill="#404040"/>
<rect width="216.433" height="244.967" fill="#17114E"/>
<path fill-rule="evenodd" clip-rule="evenodd" d="M107.525 107.119L93.2637 121.386L98.7036 126.829L103.678 121.852V161H111.372V121.852L116.347 126.829L121.787 121.386L107.525 107.119ZM139.383 132.913C132.624 138.728 125.934 137.909 119.067 137.909V130.211C126.211 130.211 129.539 130.735 133.405 128.091C142.707 121.729 137.856 106.746 126.376 107.158C121.248 81.7335 81.2567 90.3353 89.201 116.514C79.083 108.466 67.2107 130.211 88.6971 130.211H95.9836V137.909H85.2154C72.3813 137.909 64.4715 124.207 71.8196 113.731C75.332 108.728 80.8412 107.493 80.8412 107.493C83.3803 87.8151 105.84 77.4229 122.475 88.5608C129.615 93.3447 132.324 100.334 132.324 100.334C146.612 104.676 150.921 122.987 139.383 132.913Z" fill="#F9F7F7"/>
<path d="M2 1H214.43V-1H2V1ZM215.43 2V242.97H217.43V2H215.43ZM214.43 243.97H2V245.97H214.43V243.97ZM1 242.97V2.00001H-1V242.97H1ZM2 243.97C1.44772 243.97 1 243.522 1 242.97H-1C-1 244.627 0.343147 245.97 2 245.97V243.97ZM215.43 242.97C215.43 243.522 214.982 243.97 214.43 243.97V245.97C216.087 245.97 217.43 244.627 217.43 242.97H215.43ZM214.43 1C214.982 1 215.43 1.44772 215.43 2H217.43C217.43 0.343146 216.087 -1 214.43 -1V1ZM2 -1C0.343142 -1 -1 0.343154 -1 2.00001H1C1 1.44772 1.44772 1 2 1V-1Z" fill="white" fill-opacity="0.1"/>
</svg>
