<svg width="216" height="244" viewBox="0 0 216 244" fill="none" xmlns="http://www.w3.org/2000/svg">
<rect width="216" height="244" fill="#1E1E1E"/>
<path d="M0 2.00001C0 0.895436 0.895431 0 2 0H214.43C215.535 0 216.43 0.895431 216.43 2V242.97C216.43 244.075 215.535 244.97 214.43 244.97H2C0.895431 244.97 0 244.075 0 242.97V2.00001Z" fill="#404040"/>
<rect width="216.433" height="244.967" fill="#17114E"/>
<g filter="url(#filter0_d_0_1)">
<rect x="34" y="254.495" width="210" height="35" transform="rotate(-27.3549 34 254.495)" fill="#F9F7F7"/>
</g>
<path d="M124.33 219.761C123.78 218.929 123.028 218.448 122.074 218.318C121.127 218.186 120.098 218.407 118.988 218.981C118.207 219.385 117.599 219.849 117.162 220.373C116.726 220.898 116.464 221.438 116.376 221.995C116.289 222.552 116.376 223.091 116.638 223.613C116.86 224.044 117.151 224.367 117.51 224.582C117.875 224.794 118.287 224.922 118.745 224.966C119.2 225.004 119.674 224.989 120.168 224.921C120.661 224.854 121.146 224.761 121.622 224.642L123.811 224.124C124.685 223.902 125.563 223.759 126.443 223.696C127.33 223.63 128.181 223.684 128.996 223.859C129.819 224.031 130.57 224.363 131.252 224.855C131.933 225.347 132.505 226.041 132.968 226.935C133.594 228.147 133.836 229.373 133.694 230.615C133.549 231.851 133.025 233.03 132.122 234.154C131.222 235.268 129.945 236.253 128.29 237.109C126.682 237.941 125.157 238.414 123.715 238.529C122.28 238.64 120.982 238.391 119.821 237.78C118.668 237.165 117.709 236.186 116.945 234.841L120.629 232.935C121.055 233.627 121.587 234.111 122.224 234.387C122.862 234.663 123.554 234.757 124.302 234.668C125.056 234.577 125.824 234.329 126.604 233.925C127.418 233.504 128.069 233.014 128.556 232.455C129.046 231.886 129.353 231.292 129.477 230.673C129.597 230.048 129.507 229.438 129.207 228.842C128.922 228.308 128.534 227.945 128.044 227.756C127.55 227.559 126.963 227.488 126.282 227.541C125.605 227.584 124.848 227.703 124.01 227.898L121.345 228.509C119.417 228.952 117.728 228.985 116.28 228.609C114.834 228.222 113.729 227.289 112.963 225.809C112.333 224.591 112.111 223.354 112.297 222.097C112.489 220.838 113.027 219.66 113.91 218.563C114.789 217.46 115.952 216.534 117.399 215.786C118.866 215.027 120.283 214.618 121.651 214.558C123.022 214.488 124.258 214.741 125.357 215.315C126.452 215.883 127.311 216.744 127.933 217.897L124.33 219.761ZM152.431 211.121C153.584 213.348 154.153 215.472 154.141 217.491C154.131 219.501 153.627 221.297 152.629 222.879C151.638 224.458 150.237 225.716 148.427 226.652C146.617 227.589 144.778 228.007 142.91 227.908C141.044 227.798 139.286 227.168 137.633 226.019C135.984 224.859 134.585 223.169 133.436 220.948C132.284 218.721 131.713 216.603 131.722 214.593C131.735 212.574 132.237 210.774 133.229 209.195C134.227 207.613 135.631 206.353 137.441 205.417C139.251 204.481 141.087 204.064 142.948 204.167C144.817 204.267 146.575 204.896 148.224 206.056C149.877 207.206 151.279 208.894 152.431 211.121ZM148.667 213.069C147.856 211.501 146.926 210.306 145.878 209.484C144.833 208.651 143.737 208.181 142.59 208.075C141.44 207.962 140.303 208.197 139.18 208.778C138.056 209.359 137.208 210.152 136.636 211.156C136.06 212.153 135.806 213.321 135.876 214.658C135.948 215.985 136.39 217.433 137.201 219.001C138.012 220.568 138.94 221.769 139.985 222.601C141.033 223.424 142.132 223.891 143.283 224.004C144.429 224.11 145.565 223.873 146.688 223.292C147.812 222.71 148.662 221.921 149.238 220.924C149.81 219.919 150.06 218.754 149.987 217.427C149.918 216.089 149.478 214.637 148.667 213.069ZM174.442 199.734C175.594 201.961 176.163 204.085 176.151 206.104C176.141 208.114 175.637 209.91 174.639 211.492C173.648 213.071 172.247 214.329 170.437 215.265C168.627 216.202 166.788 216.62 164.92 216.521C163.055 216.411 161.296 215.781 159.643 214.632C157.994 213.472 156.595 211.782 155.447 209.561C154.294 207.334 153.723 205.216 153.733 203.206C153.745 201.187 154.248 199.387 155.239 197.808C156.237 196.226 157.641 194.966 159.451 194.03C161.261 193.094 163.097 192.677 164.958 192.78C166.827 192.88 168.585 193.509 170.235 194.669C171.887 195.819 173.289 197.507 174.442 199.734ZM170.677 201.682C169.866 200.114 168.936 198.919 167.888 198.096C166.843 197.264 165.747 196.794 164.601 196.688C163.45 196.575 162.313 196.81 161.19 197.391C160.066 197.972 159.218 198.765 158.646 199.769C158.07 200.766 157.817 201.934 157.886 203.271C157.958 204.598 158.4 206.046 159.211 207.614C160.022 209.181 160.95 210.382 161.995 211.214C163.043 212.037 164.143 212.504 165.293 212.617C166.44 212.723 167.575 212.486 168.698 211.905C169.822 211.323 170.672 210.534 171.248 209.537C171.82 208.532 172.07 207.367 171.997 206.04C171.928 204.702 171.488 203.25 170.677 201.682ZM189.621 178.78L200.315 199.45L196.984 201.173L179.96 192.132L179.789 192.221L187.073 206.301L183.329 208.238L172.635 187.568L175.986 185.834L193.004 194.89L193.186 194.796L185.897 180.706L189.621 178.78Z" fill="#B83B5E"/>
<path d="M133 134.75V147.25C133 148.908 132.333 150.497 131.145 151.669C129.957 152.842 128.346 153.5 126.667 153.5H82.3333C80.6536 153.5 79.0427 152.842 77.855 151.669C76.6673 150.497 76 148.908 76 147.25V103.5C76 101.842 76.6673 100.253 77.855 99.0806C79.0427 97.9085 80.6536 97.25 82.3333 97.25H95" stroke="#F9F7F7" stroke-width="5" stroke-linecap="round" stroke-linejoin="round"/>
<path d="M109.25 134.125L139.333 104.125L126.033 91L95.95 120.688L95 134.75L109.25 134.125Z" stroke="#F9F7F7" stroke-width="5" stroke-linecap="round" stroke-linejoin="round"/>
<path d="M2 1H214.43V-1H2V1ZM215.43 2V242.97H217.43V2H215.43ZM214.43 243.97H2V245.97H214.43V243.97ZM1 242.97V2.00001H-1V242.97H1ZM2 243.97C1.44772 243.97 1 243.522 1 242.97H-1C-1 244.627 0.343147 245.97 2 245.97V243.97ZM215.43 242.97C215.43 243.522 214.982 243.97 214.43 243.97V245.97C216.087 245.97 217.43 244.627 217.43 242.97H215.43ZM214.43 1C214.982 1 215.43 1.44772 215.43 2H217.43C217.43 0.343146 216.087 -1 214.43 -1V1ZM2 -1C0.343142 -1 -1 0.343154 -1 2.00001H1C1 1.44772 1.44772 1 2 1V-1Z" fill="white" fill-opacity="0.1"/>
<defs>
<filter id="filter0_d_0_1" x="30" y="158" width="210.6" height="135.581" filterUnits="userSpaceOnUse" color-interpolation-filters="sRGB">
<feFlood flood-opacity="0" result="BackgroundImageFix"/>
<feColorMatrix in="SourceAlpha" type="matrix" values="0 0 0 0 0 0 0 0 0 0 0 0 0 0 0 0 0 0 127 0" result="hardAlpha"/>
<feOffset dy="4"/>
<feGaussianBlur stdDeviation="2"/>
<feComposite in2="hardAlpha" operator="out"/>
<feColorMatrix type="matrix" values="0 0 0 0 0 0 0 0 0 0 0 0 0 0 0 0 0 0 0.25 0"/>
<feBlend mode="normal" in2="BackgroundImageFix" result="effect1_dropShadow_0_1"/>
<feBlend mode="normal" in="SourceGraphic" in2="effect1_dropShadow_0_1" result="shape"/>
</filter>
</defs>
</svg>
