<svg width="216" height="244" viewBox="0 0 216 244" fill="none" xmlns="http://www.w3.org/2000/svg">
<rect width="216" height="244" fill="#1E1E1E"/>
<rect width="216.433" height="244.967" fill="#344294"/>
<path d="M61.5206 83.2344C61.4278 82.366 61.0367 81.6899 60.3473 81.206C59.6645 80.7221 58.7763 80.4801 57.6825 80.4801C56.9136 80.4801 56.254 80.5961 55.7038 80.8281C55.1536 81.0601 54.7327 81.375 54.4411 81.7727C54.1494 82.1705 54.0002 82.6245 53.9936 83.1349C53.9936 83.5592 54.0897 83.9271 54.282 84.2386C54.4808 84.5502 54.7493 84.8153 55.0874 85.0341C55.4254 85.2462 55.8 85.4252 56.2109 85.571C56.6219 85.7169 57.0362 85.8395 57.4538 85.9389L59.3629 86.4162C60.1319 86.5952 60.871 86.8371 61.5803 87.142C62.2962 87.447 62.9358 87.8314 63.4993 88.2955C64.0694 88.7595 64.5201 89.3196 64.8516 89.9759C65.183 90.6321 65.3487 91.401 65.3487 92.2827C65.3487 93.4759 65.0438 94.5265 64.4339 95.4347C63.8241 96.3362 62.9425 97.0421 61.7891 97.5526C60.6423 98.0563 59.2536 98.3082 57.6229 98.3082C56.0386 98.3082 54.6631 98.063 53.4964 97.5724C52.3364 97.0819 51.4283 96.366 50.772 95.4247C50.1224 94.4834 49.7711 93.3366 49.718 91.9844H53.3473C53.4003 92.6937 53.6191 93.2836 54.0036 93.7543C54.388 94.2249 54.8885 94.5762 55.505 94.8082C56.1281 95.0402 56.8241 95.1562 57.593 95.1562C58.3951 95.1562 59.0978 95.0369 59.701 94.7983C60.3108 94.553 60.7881 94.215 61.1328 93.7841C61.4775 93.3466 61.6532 92.8362 61.6598 92.2528C61.6532 91.7225 61.4974 91.285 61.1925 90.9403C60.8875 90.589 60.46 90.2973 59.9098 90.0653C59.3662 89.8267 58.7299 89.6146 58.0007 89.429L55.6839 88.8324C54.0069 88.4015 52.6811 87.7486 51.7067 86.8736C50.7389 85.992 50.255 84.822 50.255 83.3636C50.255 82.1638 50.5798 81.1132 51.2294 80.2116C51.8857 79.3101 52.7772 78.6108 53.9041 78.1136C55.031 77.6098 56.3071 77.358 57.7322 77.358C59.1773 77.358 60.4434 77.6098 61.5305 78.1136C62.6243 78.6108 63.4827 79.3035 64.1058 80.1918C64.7289 81.0734 65.0504 82.0876 65.0703 83.2344H61.5206ZM75.2397 98.2983C73.7085 98.2983 72.386 97.9801 71.2724 97.3438C70.1654 96.7008 69.3136 95.7926 68.717 94.6193C68.1204 93.4394 67.8221 92.0507 67.8221 90.4531C67.8221 88.8821 68.1204 87.5033 68.717 86.3168C69.3202 85.1236 70.1621 84.1955 71.2425 83.5327C72.323 82.8632 73.5924 82.5284 75.0508 82.5284C75.9921 82.5284 76.8803 82.6809 77.7156 82.9858C78.5574 83.2841 79.2998 83.7481 79.9428 84.3778C80.5924 85.0076 81.1029 85.8097 81.4741 86.7841C81.8453 87.7519 82.0309 88.9053 82.0309 90.2443V91.348H69.5124V88.9219H78.5806C78.574 88.2325 78.4248 87.6193 78.1332 87.0824C77.8415 86.5388 77.4338 86.1113 76.9102 85.7997C76.3931 85.4882 75.7899 85.3324 75.1005 85.3324C74.3647 85.3324 73.7184 85.5114 73.1616 85.8693C72.6048 86.2206 72.1706 86.6847 71.859 87.2614C71.5541 87.8314 71.3983 88.4579 71.3917 89.1406V91.2585C71.3917 92.1468 71.5541 92.9091 71.8789 93.5455C72.2037 94.1752 72.6578 94.6591 73.2411 94.9972C73.8245 95.3286 74.5072 95.4943 75.2894 95.4943C75.8131 95.4943 76.2871 95.4214 76.7113 95.2756C77.1355 95.1231 77.5034 94.901 77.815 94.6094C78.1265 94.3177 78.3619 93.9564 78.521 93.5256L81.8817 93.9034C81.6696 94.7917 81.2653 95.5672 80.6687 96.2301C80.0787 96.8864 79.323 97.3968 78.4016 97.7614C77.4802 98.1193 76.4263 98.2983 75.2397 98.2983ZM91.8374 98.2983C90.3061 98.2983 88.9837 97.9801 87.87 97.3438C86.763 96.7008 85.9112 95.7926 85.3146 94.6193C84.718 93.4394 84.4197 92.0507 84.4197 90.4531C84.4197 88.8821 84.718 87.5033 85.3146 86.3168C85.9179 85.1236 86.7597 84.1955 87.8402 83.5327C88.9207 82.8632 90.1901 82.5284 91.6484 82.5284C92.5897 82.5284 93.478 82.6809 94.3132 82.9858C95.1551 83.2841 95.8975 83.7481 96.5405 84.3778C97.1901 85.0076 97.7005 85.8097 98.0717 86.7841C98.4429 87.7519 98.6286 88.9053 98.6286 90.2443V91.348H86.1101V88.9219H95.1783C95.1716 88.2325 95.0225 87.6193 94.7308 87.0824C94.4392 86.5388 94.0315 86.1113 93.5078 85.7997C92.9908 85.4882 92.3875 85.3324 91.6982 85.3324C90.9624 85.3324 90.3161 85.5114 89.7592 85.8693C89.2024 86.2206 88.7682 86.6847 88.4567 87.2614C88.1518 87.8314 87.996 88.4579 87.9893 89.1406V91.2585C87.9893 92.1468 88.1518 92.9091 88.4766 93.5455C88.8014 94.1752 89.2554 94.6591 89.8388 94.9972C90.4221 95.3286 91.1049 95.4943 91.8871 95.4943C92.4107 95.4943 92.8847 95.4214 93.3089 95.2756C93.7332 95.1231 94.1011 94.901 94.4126 94.6094C94.7242 94.3177 94.9595 93.9564 95.1186 93.5256L98.4794 93.9034C98.2673 94.7917 97.8629 95.5672 97.2663 96.2301C96.6764 96.8864 95.9207 97.3968 94.9993 97.7614C94.0779 98.1193 93.0239 98.2983 91.8374 98.2983ZM110.856 103.727C110.366 103.727 109.912 103.688 109.494 103.608C109.083 103.535 108.755 103.449 108.51 103.349L109.345 100.545C109.868 100.698 110.336 100.771 110.747 100.764C111.158 100.758 111.519 100.628 111.831 100.376C112.149 100.131 112.417 99.7202 112.636 99.1435L112.944 98.3182L107.406 82.7273H111.224L114.744 94.2614H114.903L118.433 82.7273H122.261L116.146 99.8494C115.861 100.658 115.483 101.351 115.012 101.928C114.542 102.511 113.965 102.955 113.282 103.26C112.606 103.571 111.797 103.727 110.856 103.727ZM130.894 98.2983C129.403 98.2983 128.11 97.9702 127.016 97.3139C125.923 96.6577 125.074 95.7396 124.471 94.5597C123.874 93.3797 123.576 92.0009 123.576 90.4233C123.576 88.8456 123.874 87.4635 124.471 86.277C125.074 85.0904 125.923 84.169 127.016 83.5128C128.11 82.8565 129.403 82.5284 130.894 82.5284C132.386 82.5284 133.678 82.8565 134.772 83.5128C135.866 84.169 136.711 85.0904 137.308 86.277C137.911 87.4635 138.212 88.8456 138.212 90.4233C138.212 92.0009 137.911 93.3797 137.308 94.5597C136.711 95.7396 135.866 96.6577 134.772 97.3139C133.678 97.9702 132.386 98.2983 130.894 98.2983ZM130.914 95.4148C131.723 95.4148 132.399 95.1927 132.942 94.7486C133.486 94.2978 133.89 93.6946 134.156 92.9389C134.427 92.1832 134.563 91.3414 134.563 90.4134C134.563 89.4787 134.427 88.6335 134.156 87.8778C133.89 87.1155 133.486 86.509 132.942 86.0582C132.399 85.6075 131.723 85.3821 130.914 85.3821C130.085 85.3821 129.396 85.6075 128.846 86.0582C128.302 86.509 127.895 87.1155 127.623 87.8778C127.358 88.6335 127.225 89.4787 127.225 90.4134C127.225 91.3414 127.358 92.1832 127.623 92.9389C127.895 93.6946 128.302 94.2978 128.846 94.7486C129.396 95.1927 130.085 95.4148 130.914 95.4148ZM151.002 91.5767V82.7273H154.601V98H151.111V95.2855H150.952C150.607 96.1406 150.041 96.84 149.252 97.3835C148.47 97.9271 147.505 98.1989 146.358 98.1989C145.357 98.1989 144.472 97.9768 143.703 97.5327C142.941 97.0819 142.345 96.429 141.914 95.5739C141.483 94.7121 141.267 93.6714 141.267 92.4517V82.7273H144.867V91.8949C144.867 92.8627 145.132 93.6316 145.662 94.2017C146.193 94.7718 146.889 95.0568 147.75 95.0568C148.281 95.0568 148.794 94.9276 149.292 94.669C149.789 94.4105 150.196 94.026 150.515 93.5156C150.839 92.9986 151.002 92.3523 151.002 91.5767ZM158.303 98V82.7273H161.793V85.2727H161.952C162.23 84.3911 162.707 83.7116 163.384 83.2344C164.066 82.7505 164.845 82.5085 165.72 82.5085C165.919 82.5085 166.141 82.5185 166.386 82.5384C166.638 82.5516 166.847 82.5748 167.013 82.608V85.919C166.86 85.866 166.618 85.8196 166.287 85.7798C165.962 85.7334 165.647 85.7102 165.342 85.7102C164.686 85.7102 164.096 85.8527 163.572 86.1378C163.055 86.4162 162.648 86.804 162.349 87.3011C162.051 87.7983 161.902 88.3717 161.902 89.0213V98H158.303ZM40.1129 123.051V132H36.5135V116.727H39.9538V119.322H40.1328C40.4841 118.467 41.0443 117.788 41.8132 117.284C42.5888 116.78 43.5466 116.528 44.6868 116.528C45.7408 116.528 46.6589 116.754 47.4411 117.205C48.2299 117.655 48.8397 118.308 49.2706 119.163C49.7081 120.018 49.9235 121.056 49.9169 122.276V132H46.3175V122.832C46.3175 121.812 46.0523 121.013 45.522 120.436C44.9983 119.859 44.2725 119.571 43.3445 119.571C42.7147 119.571 42.1546 119.71 41.6641 119.989C41.1802 120.26 40.799 120.655 40.5206 121.172C40.2488 121.689 40.1129 122.315 40.1129 123.051ZM60.2379 132.298C58.7464 132.298 57.4538 131.97 56.3601 131.314C55.2663 130.658 54.4179 129.74 53.8146 128.56C53.218 127.38 52.9197 126.001 52.9197 124.423C52.9197 122.846 53.218 121.464 53.8146 120.277C54.4179 119.09 55.2663 118.169 56.3601 117.513C57.4538 116.857 58.7464 116.528 60.2379 116.528C61.7294 116.528 63.022 116.857 64.1158 117.513C65.2095 118.169 66.0547 119.09 66.6513 120.277C67.2545 121.464 67.5561 122.846 67.5561 124.423C67.5561 126.001 67.2545 127.38 66.6513 128.56C66.0547 129.74 65.2095 130.658 64.1158 131.314C63.022 131.97 61.7294 132.298 60.2379 132.298ZM60.2578 129.415C61.0665 129.415 61.7427 129.193 62.2862 128.749C62.8298 128.298 63.2341 127.695 63.4993 126.939C63.7711 126.183 63.907 125.341 63.907 124.413C63.907 123.479 63.7711 122.634 63.4993 121.878C63.2341 121.116 62.8298 120.509 62.2862 120.058C61.7427 119.607 61.0665 119.382 60.2578 119.382C59.4292 119.382 58.7398 119.607 58.1896 120.058C57.6461 120.509 57.2384 121.116 56.9666 121.878C56.7015 122.634 56.5689 123.479 56.5689 124.413C56.5689 125.341 56.7015 126.183 56.9666 126.939C57.2384 127.695 57.6461 128.298 58.1896 128.749C58.7398 129.193 59.4292 129.415 60.2578 129.415ZM78.2376 116.727V119.511H69.4577V116.727H78.2376ZM71.6254 113.068H75.2248V127.406C75.2248 127.89 75.2977 128.261 75.4435 128.52C75.596 128.772 75.7949 128.944 76.0401 129.037C76.2854 129.13 76.5572 129.176 76.8555 129.176C77.0808 129.176 77.2863 129.16 77.4719 129.126C77.6642 129.093 77.81 129.063 77.9094 129.037L78.516 131.851C78.3237 131.917 78.0487 131.99 77.6907 132.07C77.3394 132.149 76.9085 132.196 76.3981 132.209C75.4966 132.235 74.6845 132.099 73.962 131.801C73.2395 131.496 72.6661 131.026 72.2418 130.389C71.8242 129.753 71.6187 128.957 71.6254 128.003V113.068ZM87.8452 132.298C86.3139 132.298 84.9915 131.98 83.8778 131.344C82.7708 130.701 81.919 129.793 81.3224 128.619C80.7259 127.439 80.4276 126.051 80.4276 124.453C80.4276 122.882 80.7259 121.503 81.3224 120.317C81.9257 119.124 82.7675 118.196 83.848 117.533C84.9285 116.863 86.1979 116.528 87.6562 116.528C88.5975 116.528 89.4858 116.681 90.321 116.986C91.1629 117.284 91.9053 117.748 92.5483 118.378C93.1979 119.008 93.7083 119.81 94.0795 120.784C94.4508 121.752 94.6364 122.905 94.6364 124.244V125.348H82.1179V122.922H91.1861C91.1795 122.232 91.0303 121.619 90.7386 121.082C90.447 120.539 90.0393 120.111 89.5156 119.8C88.9986 119.488 88.3954 119.332 87.706 119.332C86.9702 119.332 86.3239 119.511 85.767 119.869C85.2102 120.221 84.776 120.685 84.4645 121.261C84.1596 121.831 84.0038 122.458 83.9972 123.141V125.259C83.9972 126.147 84.1596 126.909 84.4844 127.545C84.8092 128.175 85.2633 128.659 85.8466 128.997C86.4299 129.329 87.1127 129.494 87.8949 129.494C88.4186 129.494 88.8925 129.421 89.3168 129.276C89.741 129.123 90.1089 128.901 90.4205 128.609C90.732 128.318 90.9673 127.956 91.1264 127.526L94.4872 127.903C94.2751 128.792 93.8707 129.567 93.2741 130.23C92.6842 130.886 91.9285 131.397 91.0071 131.761C90.0857 132.119 89.0317 132.298 87.8452 132.298ZM109.752 120.764L106.471 121.122C106.378 120.791 106.216 120.479 105.984 120.188C105.759 119.896 105.454 119.661 105.069 119.482C104.685 119.303 104.214 119.213 103.657 119.213C102.908 119.213 102.279 119.375 101.768 119.7C101.264 120.025 101.016 120.446 101.022 120.963C101.016 121.407 101.178 121.768 101.51 122.047C101.848 122.325 102.404 122.554 103.18 122.733L105.785 123.29C107.23 123.601 108.304 124.095 109.007 124.771C109.716 125.447 110.074 126.332 110.081 127.426C110.074 128.387 109.792 129.236 109.235 129.972C108.685 130.701 107.92 131.271 106.939 131.682C105.958 132.093 104.831 132.298 103.558 132.298C101.689 132.298 100.184 131.907 99.0437 131.125C97.9035 130.336 97.2241 129.239 97.0053 127.834L100.515 127.496C100.674 128.185 101.012 128.705 101.529 129.057C102.047 129.408 102.719 129.584 103.548 129.584C104.403 129.584 105.089 129.408 105.606 129.057C106.13 128.705 106.392 128.271 106.392 127.754C106.392 127.317 106.223 126.955 105.885 126.67C105.553 126.385 105.036 126.167 104.333 126.014L101.728 125.467C100.263 125.162 99.1796 124.649 98.4769 123.926C97.7743 123.197 97.4263 122.276 97.4329 121.162C97.4263 120.221 97.6815 119.405 98.1985 118.716C98.7222 118.02 99.448 117.483 100.376 117.105C101.311 116.721 102.388 116.528 103.608 116.528C105.397 116.528 106.806 116.91 107.833 117.672C108.868 118.434 109.507 119.465 109.752 120.764ZM127.73 116.727V119.511H118.701V116.727H127.73ZM120.958 132V115.286C120.958 114.258 121.171 113.403 121.595 112.72C122.026 112.037 122.602 111.527 123.325 111.189C124.047 110.851 124.85 110.682 125.731 110.682C126.354 110.682 126.908 110.732 127.392 110.831C127.876 110.93 128.234 111.02 128.466 111.099L127.75 113.884C127.597 113.837 127.405 113.791 127.173 113.744C126.941 113.691 126.682 113.665 126.397 113.665C125.728 113.665 125.254 113.827 124.975 114.152C124.704 114.47 124.568 114.928 124.568 115.524V132H120.958ZM130.549 132V116.727H134.039V119.273H134.198C134.476 118.391 134.953 117.712 135.63 117.234C136.312 116.75 137.091 116.509 137.966 116.509C138.165 116.509 138.387 116.518 138.632 116.538C138.884 116.552 139.093 116.575 139.259 116.608V119.919C139.106 119.866 138.864 119.82 138.533 119.78C138.208 119.733 137.893 119.71 137.588 119.71C136.932 119.71 136.342 119.853 135.819 120.138C135.301 120.416 134.894 120.804 134.596 121.301C134.297 121.798 134.148 122.372 134.148 123.021V132H130.549ZM147.683 132.298C146.192 132.298 144.899 131.97 143.805 131.314C142.712 130.658 141.863 129.74 141.26 128.56C140.663 127.38 140.365 126.001 140.365 124.423C140.365 122.846 140.663 121.464 141.26 120.277C141.863 119.09 142.712 118.169 143.805 117.513C144.899 116.857 146.192 116.528 147.683 116.528C149.175 116.528 150.467 116.857 151.561 117.513C152.655 118.169 153.5 119.09 154.097 120.277C154.7 121.464 155.001 122.846 155.001 124.423C155.001 126.001 154.7 127.38 154.097 128.56C153.5 129.74 152.655 130.658 151.561 131.314C150.467 131.97 149.175 132.298 147.683 132.298ZM147.703 129.415C148.512 129.415 149.188 129.193 149.732 128.749C150.275 128.298 150.679 127.695 150.945 126.939C151.216 126.183 151.352 125.341 151.352 124.413C151.352 123.479 151.216 122.634 150.945 121.878C150.679 121.116 150.275 120.509 149.732 120.058C149.188 119.607 148.512 119.382 147.703 119.382C146.875 119.382 146.185 119.607 145.635 120.058C145.091 120.509 144.684 121.116 144.412 121.878C144.147 122.634 144.014 123.479 144.014 124.413C144.014 125.341 144.147 126.183 144.412 126.939C144.684 127.695 145.091 128.298 145.635 128.749C146.185 129.193 146.875 129.415 147.703 129.415ZM158.056 132V116.727H161.497V119.322H161.676C161.994 118.447 162.521 117.765 163.257 117.274C163.993 116.777 164.871 116.528 165.892 116.528C166.926 116.528 167.797 116.78 168.507 117.284C169.223 117.781 169.726 118.461 170.018 119.322H170.177C170.515 118.474 171.085 117.798 171.887 117.294C172.696 116.784 173.654 116.528 174.761 116.528C176.166 116.528 177.313 116.973 178.201 117.861C179.09 118.749 179.534 120.045 179.534 121.749V132H175.924V122.305C175.924 121.357 175.672 120.665 175.169 120.227C174.665 119.783 174.048 119.561 173.319 119.561C172.451 119.561 171.771 119.833 171.281 120.376C170.797 120.913 170.555 121.613 170.555 122.474V132H167.025V122.156C167.025 121.367 166.787 120.738 166.309 120.267C165.839 119.796 165.222 119.561 164.46 119.561C163.943 119.561 163.472 119.694 163.048 119.959C162.624 120.217 162.286 120.585 162.034 121.062C161.782 121.533 161.656 122.083 161.656 122.713V132H158.056Z" fill="white"/>
<path d="M47.7443 166.308C46.7765 166.308 45.9048 166.136 45.1293 165.791C44.3603 165.44 43.7505 164.923 43.2997 164.24C42.8556 163.557 42.6335 162.715 42.6335 161.714C42.6335 160.853 42.7926 160.14 43.1108 159.577C43.429 159.013 43.8632 158.562 44.4134 158.224C44.9635 157.886 45.5833 157.631 46.2727 157.459C46.9688 157.28 47.688 157.151 48.4304 157.071C49.3253 156.978 50.0511 156.895 50.608 156.822C51.1648 156.743 51.5691 156.624 51.821 156.464C52.0795 156.299 52.2088 156.044 52.2088 155.699V155.639C52.2088 154.89 51.9867 154.31 51.5426 153.899C51.0985 153.488 50.4588 153.283 49.6236 153.283C48.742 153.283 48.0426 153.475 47.5256 153.859C47.0152 154.244 46.6705 154.698 46.4915 155.222L43.1307 154.744C43.3958 153.816 43.8333 153.041 44.4432 152.418C45.053 151.788 45.7988 151.317 46.6804 151.006C47.562 150.688 48.5365 150.528 49.6037 150.528C50.3395 150.528 51.072 150.615 51.8011 150.787C52.5303 150.959 53.1965 151.244 53.7997 151.642C54.4029 152.033 54.8868 152.567 55.2514 153.243C55.6226 153.919 55.8082 154.764 55.8082 155.778V166H52.348V163.902H52.2287C52.0099 164.326 51.7017 164.724 51.304 165.095C50.9129 165.46 50.419 165.755 49.8224 165.98C49.2325 166.199 48.5398 166.308 47.7443 166.308ZM48.679 163.663C49.4015 163.663 50.0279 163.521 50.5582 163.236C51.0885 162.944 51.4962 162.56 51.7812 162.082C52.0729 161.605 52.2188 161.085 52.2188 160.521V158.722C52.1061 158.814 51.9138 158.901 51.642 158.98C51.3769 159.06 51.0786 159.129 50.7472 159.189C50.4157 159.249 50.0876 159.302 49.7628 159.348C49.438 159.394 49.1563 159.434 48.9176 159.467C48.3807 159.54 47.9001 159.66 47.4759 159.825C47.0516 159.991 46.7169 160.223 46.4716 160.521C46.2263 160.813 46.1037 161.191 46.1037 161.655C46.1037 162.318 46.3456 162.818 46.8295 163.156C47.3134 163.494 47.9299 163.663 48.679 163.663ZM63.027 157.051V166H59.4276V150.727H62.8679V153.322H63.0469C63.3982 152.467 63.9583 151.788 64.7273 151.284C65.5028 150.78 66.4607 150.528 67.6009 150.528C68.6548 150.528 69.5729 150.754 70.3551 151.205C71.1439 151.655 71.7538 152.308 72.1847 153.163C72.6222 154.018 72.8376 155.056 72.831 156.276V166H69.2315V156.832C69.2315 155.812 68.9664 155.013 68.4361 154.436C67.9124 153.859 67.1866 153.571 66.2585 153.571C65.6288 153.571 65.0687 153.71 64.5781 153.989C64.0942 154.26 63.7131 154.655 63.4347 155.172C63.1629 155.689 63.027 156.315 63.027 157.051ZM78.1804 171.727C77.6899 171.727 77.2358 171.688 76.8182 171.608C76.4072 171.535 76.0791 171.449 75.8338 171.349L76.669 168.545C77.1927 168.698 77.66 168.771 78.071 168.764C78.482 168.758 78.8433 168.628 79.1548 168.376C79.473 168.131 79.7415 167.72 79.9602 167.143L80.2685 166.318L74.7301 150.727H78.5483L82.0682 162.261H82.2273L85.7571 150.727H89.5852L83.4702 167.849C83.1851 168.658 82.8073 169.351 82.3366 169.928C81.866 170.511 81.2893 170.955 80.6065 171.26C79.9304 171.571 79.1217 171.727 78.1804 171.727ZM95.228 166L90.9126 150.727H94.5817L97.2663 161.466H97.4055L100.15 150.727H103.779L106.523 161.406H106.673L109.317 150.727H112.996L108.671 166H104.923L102.059 155.679H101.85L98.9865 166H95.228ZM119.109 157.051V166H115.51V145.636H119.029V153.322H119.208C119.566 152.461 120.12 151.781 120.869 151.284C121.625 150.78 122.586 150.528 123.752 150.528C124.813 150.528 125.738 150.75 126.527 151.195C127.315 151.639 127.925 152.288 128.356 153.143C128.794 153.999 129.012 155.043 129.012 156.276V166H125.413V156.832C125.413 155.805 125.148 155.006 124.618 154.436C124.094 153.859 123.358 153.571 122.41 153.571C121.774 153.571 121.204 153.71 120.7 153.989C120.203 154.26 119.812 154.655 119.527 155.172C119.248 155.689 119.109 156.315 119.109 157.051ZM139.443 166.298C137.912 166.298 136.589 165.98 135.475 165.344C134.368 164.701 133.517 163.793 132.92 162.619C132.324 161.439 132.025 160.051 132.025 158.453C132.025 156.882 132.324 155.503 132.92 154.317C133.523 153.124 134.365 152.196 135.446 151.533C136.526 150.863 137.796 150.528 139.254 150.528C140.195 150.528 141.083 150.681 141.919 150.986C142.761 151.284 143.503 151.748 144.146 152.378C144.796 153.008 145.306 153.81 145.677 154.784C146.048 155.752 146.234 156.905 146.234 158.244V159.348H133.716V156.922H142.784C142.777 156.232 142.628 155.619 142.336 155.082C142.045 154.539 141.637 154.111 141.113 153.8C140.596 153.488 139.993 153.332 139.304 153.332C138.568 153.332 137.922 153.511 137.365 153.869C136.808 154.221 136.374 154.685 136.062 155.261C135.757 155.831 135.601 156.458 135.595 157.141V159.259C135.595 160.147 135.757 160.909 136.082 161.545C136.407 162.175 136.861 162.659 137.444 162.997C138.028 163.329 138.71 163.494 139.493 163.494C140.016 163.494 140.49 163.421 140.914 163.276C141.339 163.123 141.707 162.901 142.018 162.609C142.33 162.318 142.565 161.956 142.724 161.526L146.085 161.903C145.873 162.792 145.468 163.567 144.872 164.23C144.282 164.886 143.526 165.397 142.605 165.761C141.683 166.119 140.629 166.298 139.443 166.298ZM149.279 166V150.727H152.769V153.273H152.928C153.207 152.391 153.684 151.712 154.36 151.234C155.043 150.75 155.822 150.509 156.697 150.509C156.896 150.509 157.118 150.518 157.363 150.538C157.615 150.552 157.824 150.575 157.989 150.608V153.919C157.837 153.866 157.595 153.82 157.263 153.78C156.939 153.733 156.624 153.71 156.319 153.71C155.663 153.71 155.073 153.853 154.549 154.138C154.032 154.416 153.624 154.804 153.326 155.301C153.028 155.798 152.879 156.372 152.879 157.021V166H149.279ZM166.513 166.298C164.982 166.298 163.659 165.98 162.546 165.344C161.439 164.701 160.587 163.793 159.99 162.619C159.394 161.439 159.096 160.051 159.096 158.453C159.096 156.882 159.394 155.503 159.99 154.317C160.594 153.124 161.435 152.196 162.516 151.533C163.596 150.863 164.866 150.528 166.324 150.528C167.266 150.528 168.154 150.681 168.989 150.986C169.831 151.284 170.573 151.748 171.216 152.378C171.866 153.008 172.376 153.81 172.748 154.784C173.119 155.752 173.304 156.905 173.304 158.244V159.348H160.786V156.922H169.854C169.847 156.232 169.698 155.619 169.407 155.082C169.115 154.539 168.707 154.111 168.184 153.8C167.667 153.488 167.063 153.332 166.374 153.332C165.638 153.332 164.992 153.511 164.435 153.869C163.878 154.221 163.444 154.685 163.132 155.261C162.828 155.831 162.672 156.458 162.665 157.141V159.259C162.665 160.147 162.828 160.909 163.152 161.545C163.477 162.175 163.931 162.659 164.515 162.997C165.098 163.329 165.781 163.494 166.563 163.494C167.087 163.494 167.56 163.421 167.985 163.276C168.409 163.123 168.777 162.901 169.088 162.609C169.4 162.318 169.635 161.956 169.794 161.526L173.155 161.903C172.943 162.792 172.539 163.567 171.942 164.23C171.352 164.886 170.596 165.397 169.675 165.761C168.754 166.119 167.7 166.298 166.513 166.298Z" fill="#B83B5E"/>
</svg>
