<svg width="216" height="245" viewBox="0 0 216 245" fill="none" xmlns="http://www.w3.org/2000/svg">
<path d="M0 2.00001C0 0.895436 0.895431 0 2 0H214.43C215.535 0 216.43 0.895431 216.43 2V242.97C216.43 244.075 215.535 244.97 214.43 244.97H2C0.895431 244.97 0 244.075 0 242.97V2.00001Z" fill="#404040"/>
<rect width="216.433" height="244.967" fill="#17114E"/>
<path d="M146.667 131.333V97.5C146.667 89.4919 140.231 83 132.292 83H84.375C76.4359 83 70 89.4919 70 97.5V145.833C70 153.842 76.4359 160.333 84.375 160.333H115.521M146.667 131.333L115.521 160.333M146.667 131.333H125.104C119.811 131.333 115.521 135.661 115.521 141V160.333" stroke="#F9F7F7" stroke-width="5" stroke-linecap="round" stroke-linejoin="round"/>
<path d="M89.1666 102.333H127.5" stroke="#F9F7F7" stroke-width="5" stroke-linecap="round" stroke-linejoin="round"/>
<path d="M89.1666 121.667H108.333" stroke="#F9F7F7" stroke-width="5" stroke-linecap="round" stroke-linejoin="round"/>
<path d="M2 1H214.43V-1H2V1ZM215.43 2V242.97H217.43V2H215.43ZM214.43 243.97H2V245.97H214.43V243.97ZM1 242.97V2.00001H-1V242.97H1ZM2 243.97C1.44772 243.97 1 243.522 1 242.97H-1C-1 244.627 0.343147 245.97 2 245.97V243.97ZM215.43 242.97C215.43 243.522 214.982 243.97 214.43 243.97V245.97C216.087 245.97 217.43 244.627 217.43 242.97H215.43ZM214.43 1C214.982 1 215.43 1.44772 215.43 2H217.43C217.43 0.343146 216.087 -1 214.43 -1V1ZM2 -1C0.343142 -1 -1 0.343154 -1 2.00001H1C1 1.44772 1.44772 1 2 1V-1Z" fill="white" fill-opacity="0.1"/>
</svg>
